<svg width="44" height="43" viewBox="0 0 44 43" fill="none" xmlns="http://www.w3.org/2000/svg">
<path d="M43.4925 29.3445C42.5716 27.6949 40.6612 26.9129 38.8474 27.4473L27.4413 30.7941C27.0939 28.8838 25.7159 27.312 23.7964 26.7348L16.3573 24.5003C16.2113 24.4568 16.0555 24.4594 15.9101 24.5082L8.9873 26.8571V25.2022C8.9873 24.7973 8.65892 24.4696 8.25393 24.4696L0.733366 24.4699C0.32838 24.4699 0 24.7976 0 25.2025V39.4089C0 39.8138 0.32838 40.1415 0.733366 40.1415H8.25368C8.65866 40.1415 8.98705 39.8138 8.98705 39.4089V38.3009C10.0344 38.6351 12.1146 39.2409 16.3643 40.3904C16.7549 40.5 17.1582 40.2651 17.2636 39.8753C17.3694 39.4848 17.1382 39.0819 16.7473 38.9769C11.5624 37.5739 9.66575 36.996 8.98669 36.7634V28.406L16.1593 25.9721L23.3734 28.1392C24.8922 28.5951 25.9278 29.9193 26.0381 31.4784C25.4622 32.0259 23.5145 33.5054 19.8352 32.778C19.4355 32.6966 19.0518 32.9569 18.9729 33.354C18.894 33.7504 19.1523 34.1359 19.5494 34.2147C20.3493 34.3737 21.0836 34.4407 21.7541 34.4407C24.9296 34.4407 26.6742 32.9314 27.1955 32.3937L39.2604 28.8535C40.4115 28.5166 41.6255 29.0108 42.2105 30.0596C42.9514 31.3158 42.3664 33.0704 41.0191 33.6323L24.4216 41.0155C23.7462 40.8395 21.77 40.3215 19.4265 39.6961C19.0323 39.5889 18.6329 39.8234 18.5284 40.2148C18.424 40.6053 18.6567 41.0069 19.0477 41.1113C21.9566 41.8874 24.2997 42.4986 24.2997 42.4986C24.3606 42.5143 24.4228 42.5221 24.4847 42.5221C24.5869 42.5221 24.6883 42.5006 24.783 42.4584L41.616 34.9699C42.6447 34.5127 43.4386 33.6386 43.7945 32.5711C44.1507 31.5036 44.04 30.3282 43.492 29.3454L43.4925 29.3445ZM7.52072 38.6757H1.46714V25.9344H7.52072V38.6757Z" fill="#21A038"/>
<path d="M5.19779 27.3721H3.79098C3.386 27.3721 3.05762 27.6998 3.05762 28.1047C3.05762 28.5095 3.386 28.8373 3.79098 28.8373H5.19779C5.60277 28.8373 5.93115 28.5095 5.93115 28.1047C5.93115 27.6998 5.60277 27.3721 5.19779 27.3721Z" fill="#21A038"/>
<path d="M29.4281 18.4262C30.8435 18.4262 31.9949 17.276 31.9949 15.8621C31.9949 14.4482 30.8435 13.298 29.4281 13.298C28.0128 13.298 26.8613 14.4482 26.8613 15.8621C26.8613 17.276 28.0128 18.4262 29.4281 18.4262ZM29.4281 14.7632C30.0348 14.7632 30.5282 15.2561 30.5282 15.8621C30.5282 16.4681 30.0348 16.961 29.4281 16.961C28.8214 16.961 28.3281 16.4681 28.3281 15.8621C28.3281 15.2561 28.8214 14.7632 29.4281 14.7632Z" fill="#21A038"/>
<path d="M24.6604 8.53654C24.6604 7.12268 23.509 5.97247 22.0936 5.97247C20.6783 5.97247 19.5269 7.12268 19.5269 8.53654C19.5269 9.9504 20.6783 11.1006 22.0936 11.1006C23.509 11.1006 24.6604 9.9504 24.6604 8.53654ZM22.0936 9.63543C21.487 9.63543 20.9936 9.14257 20.9936 8.53654C20.9936 7.93052 21.487 7.43766 22.0936 7.43766C22.7003 7.43766 23.1937 7.93052 23.1937 8.53654C23.1937 9.14257 22.7003 9.63543 22.0936 9.63543Z" fill="#21A038"/>
<path d="M23.2438 18.5804C23.6115 18.7269 24.0466 18.5473 24.1949 18.167L28.6917 6.7687C28.8403 6.39226 28.655 5.96743 28.2785 5.81859C27.9003 5.67109 27.4757 5.85587 27.3274 6.23198L22.8306 17.6303C22.682 18.0067 22.8673 18.4315 23.2438 18.5804Z" fill="#21A038"/>
<path d="M25.7608 23.921C30.9471 23.921 35.5804 20.4503 37.0278 15.4815C37.1414 15.093 36.9175 14.6868 36.5285 14.5736C36.1422 14.4614 35.733 14.6832 35.6197 15.0723C34.3527 19.4192 30.2985 22.4555 25.7607 22.4555C20.0994 22.4555 15.4936 17.8546 15.4936 12.1992C15.4936 6.54389 20.0994 1.94297 25.7607 1.94297C31.4221 1.94297 36.0278 6.54389 36.0278 12.1992C36.0278 12.6041 36.3562 12.9318 36.7612 12.9318C37.1662 12.9318 37.4946 12.6041 37.4946 12.1992C37.4946 5.73611 32.2307 0.477783 25.7607 0.477783C19.2907 0.477783 14.0269 5.73611 14.0269 12.1992C14.0269 18.6624 19.2907 23.9207 25.7607 23.9207L25.7608 23.921Z" fill="#21A038"/>
</svg>
