<svg width="44" height="44" viewBox="0 0 44 44" fill="none" xmlns="http://www.w3.org/2000/svg">
<path d="M30.5446 34.6484C30.1397 34.6484 29.8113 34.9767 29.8113 35.3817V41.8C29.8113 42.2043 29.4823 42.5333 29.078 42.5333H2.19996C1.79565 42.5333 1.46664 42.2043 1.46664 41.8V2.2C1.46664 1.79569 1.79565 1.46667 2.19996 1.46667H29.078C29.4823 1.46667 29.8113 1.79569 29.8113 2.2V8.72013C29.8113 9.1251 30.1397 9.45346 30.5446 9.45346C30.9496 9.45346 31.278 9.1251 31.278 8.72013V2.2C31.278 0.986689 30.2913 0 29.078 0H2.19996C0.986671 0 0 0.986689 0 2.2V41.8C0 43.0133 0.986671 44 2.19996 44H29.078C30.2913 44 31.278 43.0133 31.278 41.8V35.3817C31.278 34.9767 30.9496 34.6484 30.5446 34.6484Z" fill="#21A038"/>
<path d="M41.9524 13.3951C40.2494 13.2815 37.1183 12.8078 35.286 10.9103C34.8667 10.4762 34.3049 10.2372 33.7045 10.2369H33.7042C33.1038 10.2369 32.5417 10.4762 32.122 10.9103C30.2893 12.8078 27.1583 13.2815 25.4556 13.3951C24.3075 13.4714 23.4082 14.4348 23.4082 15.5886V26.5961C23.4082 27.3556 23.8102 28.0742 24.4577 28.4717L32.554 33.4384C32.9089 33.6558 33.3063 33.7645 33.7041 33.7645C34.1019 33.7645 34.4999 33.6554 34.8548 33.4384L42.9508 28.4717C43.598 28.0742 44.0003 27.3557 44.0003 26.5961V15.5886C44.0003 14.4348 43.1011 13.4714 41.9529 13.3951H41.9524ZM42.5331 26.5959C42.5331 26.849 42.3992 27.089 42.1832 27.2212L34.0875 32.1879C33.8502 32.3336 33.5562 32.333 33.3201 32.1879L25.2239 27.2212C25.0078 27.089 24.8739 26.8493 24.8739 26.5959V15.5884C24.8739 15.204 25.1718 14.8832 25.5522 14.858C27.4661 14.7307 31.0017 14.1807 33.1762 11.9293C33.3169 11.7836 33.5042 11.7034 33.7036 11.7034C33.9029 11.7037 34.0899 11.7836 34.2306 11.9293C36.405 14.1803 39.9407 14.7304 41.8546 14.858C42.235 14.8835 42.5329 15.2044 42.5329 15.5884V26.5959H42.5331Z" fill="#21A038"/>
<path d="M40.4299 16.1894C37.8659 15.8459 35.7527 15.0474 34.1499 13.8165C33.887 13.6139 33.5197 13.6139 33.2568 13.8165C31.6533 15.0475 29.5404 15.846 26.9764 16.1894C26.6124 16.2381 26.3403 16.5488 26.3403 16.9161V25.7748C26.3403 26.0298 26.4729 26.2665 26.6903 26.4001L33.3199 30.4675C33.4378 30.5395 33.5707 30.5755 33.7033 30.5755C33.8362 30.5755 33.9691 30.5395 34.0866 30.4675L40.716 26.4001C40.9334 26.2665 41.066 26.0298 41.066 25.7748V16.9161C41.066 16.5488 40.7943 16.2378 40.4299 16.1894ZM39.5994 25.364L33.7033 28.9812L27.807 25.364V17.5477C30.1258 17.1624 32.1041 16.4098 33.7033 15.3048C35.3022 16.4098 37.2806 17.1624 39.5994 17.5477V25.364Z" fill="#21A038"/>
<path d="M20.026 8.77045H17.8392V6.58319C17.8392 6.17822 17.5108 5.84985 17.1058 5.84985H14.1726C13.7676 5.84985 13.4392 6.17822 13.4392 6.58319V8.77045H11.2524C10.8474 8.77045 10.519 9.09881 10.519 9.50378V12.4371C10.519 12.8421 10.8474 13.1704 11.2524 13.1704H13.4392V15.3574C13.4392 15.7623 13.7676 16.0907 14.1726 16.0907H17.1058C17.5108 16.0907 17.8392 15.7623 17.8392 15.3574V13.1704H20.026C20.431 13.1704 20.7594 12.8421 20.7594 12.4371V9.50378C20.7594 9.09881 20.431 8.77045 20.026 8.77045ZM19.2927 11.7038H17.1058C16.7009 11.7038 16.3725 12.0321 16.3725 12.4371V14.624H14.9059V12.4371C14.9059 12.0321 14.5775 11.7038 14.1726 11.7038H11.9857V10.2371H14.1726C14.5775 10.2371 14.9059 9.90875 14.9059 9.50378V7.31652H16.3725V9.50378C16.3725 9.90875 16.7009 10.2371 17.1058 10.2371H19.2927V11.7038Z" fill="#21A038"/>
<path d="M31.6945 21.481C31.408 21.1946 30.9438 21.1946 30.6577 21.481C30.3713 21.7671 30.3713 22.2317 30.6577 22.5178L32.2298 24.0903C32.3673 24.2278 32.5539 24.305 32.7483 24.305C32.9428 24.305 33.1294 24.2278 33.2669 24.0903L36.7489 20.6082C37.0353 20.3218 37.0353 19.8575 36.7489 19.5714C36.4624 19.285 35.9982 19.285 35.7121 19.5714L32.7487 22.5348L31.6953 21.481H31.6945Z" fill="#21A038"/>
<path d="M5.99309 21.564H19.7409C20.1459 21.564 20.4743 21.2357 20.4743 20.8307C20.4743 20.4257 20.1459 20.0974 19.7409 20.0974H5.99309C5.58813 20.0974 5.25977 20.4257 5.25977 20.8307C5.25977 21.2357 5.58813 21.564 5.99309 21.564Z" fill="#21A038"/>
<path d="M5.99309 27.0376H19.7409C20.1459 27.0376 20.4743 26.7092 20.4743 26.3043C20.4743 25.8993 20.1459 25.5709 19.7409 25.5709H5.99309C5.58813 25.5709 5.25977 25.8993 5.25977 26.3043C5.25977 26.7092 5.58813 27.0376 5.99309 27.0376Z" fill="#21A038"/>
<path d="M25.2857 31.0454H5.99309C5.58813 31.0454 5.25977 31.3738 5.25977 31.7787C5.25977 32.1837 5.58813 32.5121 5.99309 32.5121H25.2857C25.6906 32.5121 26.019 32.1837 26.019 31.7787C26.019 31.3738 25.6906 31.0454 25.2857 31.0454Z" fill="#21A038"/>
<path d="M25.2857 36.5181H5.99309C5.58813 36.5181 5.25977 36.8465 5.25977 37.2515C5.25977 37.6564 5.58813 37.9848 5.99309 37.9848H25.2857C25.6906 37.9848 26.019 37.6564 26.019 37.2515C26.019 36.8465 25.6906 36.5181 25.2857 36.5181Z" fill="#21A038"/>
</svg>
