<svg width="44" height="44" viewBox="0 0 44 44" fill="none" xmlns="http://www.w3.org/2000/svg">
<path d="M14.4553 33.2703C13.6464 33.2703 12.9886 32.6126 12.9886 31.8036C12.9886 31.3987 12.6603 31.0703 12.2553 31.0703C11.8503 31.0703 11.522 31.3987 11.522 31.8036C11.522 33.1665 12.4606 34.3049 13.722 34.6329V35.4923C13.722 35.8972 14.0504 36.2256 14.4553 36.2256C14.8603 36.2256 15.1887 35.8972 15.1887 35.4923V34.6329C16.4501 34.3048 17.3887 33.1665 17.3887 31.8036C17.3887 30.1864 16.0726 28.8703 14.4553 28.8703C13.6464 28.8703 12.9886 28.2126 12.9886 27.4036C12.9886 26.5947 13.6464 25.9369 14.4553 25.9369C15.2643 25.9369 15.922 26.5947 15.922 27.4036C15.922 27.8086 16.2504 28.1369 16.6553 28.1369C17.0603 28.1369 17.3887 27.8086 17.3887 27.4036C17.3887 26.0407 16.4501 24.9024 15.1887 24.5744V23.715C15.1887 23.31 14.8603 22.9816 14.4553 22.9816C14.0504 22.9816 13.722 23.31 13.722 23.715V24.5744C12.4606 24.9024 11.522 26.0407 11.522 27.4036C11.522 29.0209 12.838 30.337 14.4553 30.337C15.2643 30.337 15.922 30.9947 15.922 31.8036C15.922 32.6126 15.2643 33.2703 14.4553 33.2703Z" fill="#21A038"/>
<path d="M34.8518 24.7268C31.8187 24.7268 29.1825 25.4461 27.5273 26.5713C25.8485 22.2335 22.7681 18.9358 19.1362 17.3715L21.9962 14.5115C23.1119 13.3958 23.1119 11.5804 21.9962 10.4644C20.8802 9.34868 19.0646 9.34801 17.9491 10.4644L17.4744 10.9387C16.9123 9.83446 15.7681 9.08478 14.4563 9.08478C13.1445 9.08478 12.0002 9.83448 11.4381 10.9387L10.9634 10.4644C9.84771 9.34868 8.0323 9.34801 6.91629 10.4644C5.80061 11.58 5.80061 13.3954 6.91629 14.5115L9.73901 17.3342C7.47254 18.2951 5.38911 19.9398 3.70964 22.1611C3.46541 22.4843 3.52958 22.9442 3.85237 23.1885C4.17485 23.4324 4.63482 23.3682 4.87972 23.0457C7.38614 19.7303 10.8558 17.8289 14.398 17.8289C19.5196 17.8289 24.2993 21.7604 26.3585 27.6313C25.9382 28.1715 25.7028 28.7631 25.7028 29.3884V38.9536C23.7938 41.3982 20.2411 42.5342 14.3977 42.5339C5.33362 42.5339 1.46662 39.7459 1.46662 33.2109C1.46662 30.47 2.16133 27.7161 3.47614 25.2476C3.66634 24.8898 3.53081 24.4458 3.17363 24.2553C2.81515 24.0651 2.37155 24.2009 2.18132 24.5578C0.75429 27.2384 0 30.2304 0 33.2103C0 42.7739 7.69451 44 14.3977 44C18.0415 44 23.062 43.6317 26.0775 40.7075C27.1719 42.6545 30.58 44 34.8524 44C40.0676 44 44.0011 41.9958 44.0011 39.3388V29.388C44.0011 26.7741 39.9828 24.7267 34.8524 24.7267L34.8518 24.7268ZM11.2744 16.7963L7.95312 13.475C7.40934 12.9312 7.40934 12.0459 7.95312 11.5018C8.49756 10.9584 9.3825 10.9584 9.92626 11.5018L11.2872 12.8624C11.4924 13.0677 11.7979 13.1325 12.0686 13.0284C12.339 12.9246 12.523 12.6716 12.5381 12.3821C12.5921 11.3558 13.4348 10.5517 14.4563 10.5517C15.4777 10.5517 16.3204 11.3561 16.3744 12.3821C16.3895 12.6716 16.5735 12.9246 16.8439 13.0284C17.1146 13.1322 17.4201 13.0674 17.6253 12.8624L18.9862 11.5018C19.5307 10.9584 20.415 10.9584 20.9594 11.5018C21.5032 12.0456 21.5032 12.9309 20.9594 13.475L17.6168 16.8176C16.5711 16.5193 15.492 16.3625 14.3987 16.3625C13.3435 16.3625 12.2965 16.5131 11.2751 16.7963L11.2744 16.7963ZM42.5339 29.3879C42.5339 30.8991 39.3792 32.5825 34.8522 32.5825C30.3252 32.5825 27.1702 30.8987 27.1702 29.3879C27.1702 27.8767 30.3252 26.1933 34.8522 26.1933C39.3792 26.1933 42.5339 27.8771 42.5339 29.3879ZM34.8522 42.5335C30.3251 42.5335 27.1702 40.8497 27.1702 39.3389V36.9608C28.7724 38.2219 31.5542 39.0249 34.8522 39.0249C35.2571 39.0249 35.5855 38.6966 35.5855 38.2916C35.5855 37.8866 35.2571 37.5583 34.8522 37.5583C30.3251 37.5583 27.1702 35.8745 27.1702 34.3637V31.9856C28.7724 33.2467 31.5542 34.0497 34.8522 34.0497C38.1502 34.0497 40.9317 33.247 42.5339 31.9856V34.3637C42.5339 35.5767 40.5097 36.8168 37.721 37.3134C37.3222 37.3844 37.0564 37.7648 37.1278 38.1639C37.191 38.5191 37.5 38.7686 37.849 38.7686C37.8916 38.7686 37.9351 38.765 37.9783 38.7571C39.9138 38.4124 41.4817 37.7658 42.5341 36.9359V39.3392C42.5341 40.8504 39.3795 42.5338 34.8525 42.5338L34.8522 42.5335Z" fill="#21A038"/>
<path d="M34.2843 18.1321C34.4234 18.3023 34.6319 18.4009 34.8519 18.4009C35.0719 18.4009 35.2802 18.302 35.4196 18.1321L42.2665 9.76744C42.4459 9.54842 42.4832 9.24493 42.3617 8.98892C42.2403 8.7329 41.9823 8.56954 41.6988 8.56954H38.8745L38.8741 0.733642C38.8741 0.328673 38.5458 0.000305176 38.1408 0.000305176H31.5627C31.1578 0.000305176 30.8294 0.328673 30.8294 0.733642V8.56987H28.0051C27.7219 8.56987 27.4636 8.73324 27.3421 8.98925C27.2207 9.24527 27.258 9.54842 27.4374 9.76777L34.2846 18.1324L34.2843 18.1321ZM31.5624 10.0362C31.9673 10.0362 32.2957 9.70785 32.2957 9.30288L32.296 1.46698H37.4074V9.30321C37.4074 9.70818 37.7358 10.0365 38.1408 10.0365H40.1505L34.8518 16.5102L29.5528 10.0365H31.5625L31.5624 10.0362Z" fill="#21A038"/>
</svg>
