<svg width="44" height="44" viewBox="0 0 44 44" fill="none" xmlns="http://www.w3.org/2000/svg">
<path d="M7.33346 18.1419C8.95141 18.1419 10.2668 16.7264 10.2668 14.9869C10.2668 14.6721 10.2105 14.3738 10.1303 14.0865L14.9339 9.45384C15.4512 9.94576 16.123 10.2539 16.8665 10.2539C18.102 10.2539 19.1561 9.42602 19.5877 8.26122L24.2479 10.7677C24.4777 12.2625 25.6785 13.4094 27.1328 13.4094C28.8097 13.4193 30.2151 11.8347 30.0448 10.0265L34.8868 5.64603C35.3818 6.05626 35.9943 6.31014 36.6664 6.31014C38.2843 6.31014 39.5997 4.8946 39.5997 3.15507C39.5997 1.41555 38.2843 0 36.6664 0C35.0484 0 33.7331 1.41555 33.7331 3.15507C33.7331 3.60051 33.8214 4.02342 33.977 4.40791L29.5232 8.43693C28.9916 7.62985 28.1208 7.09846 27.133 7.09846C25.8975 7.09846 24.8433 7.92631 24.4118 9.09111L19.7515 6.58463C19.5217 5.08985 18.3209 3.94294 16.8667 3.94294C15.2487 3.94294 13.9333 5.35848 13.9333 7.09801C13.9333 7.4614 14.0024 7.80509 14.1078 8.13008L9.35682 12.7116C8.82973 12.1686 8.11895 11.8306 7.33324 11.8306C5.71529 11.8306 4.3999 13.2461 4.3999 14.9856C4.3999 16.7252 5.71529 18.1407 7.33324 18.1407L7.33346 18.1419ZM36.6668 1.57782C37.4754 1.57782 38.1335 2.28524 38.1335 3.15535C38.1335 4.02546 37.4754 4.73289 36.6668 4.73289C35.8582 4.73289 35.2001 4.02546 35.2001 3.15535C35.2001 2.28524 35.8582 1.57782 36.6668 1.57782ZM27.1335 8.67672C27.9421 8.67672 28.6001 9.38415 28.6001 10.2543C28.6001 11.1244 27.9421 11.8318 27.1335 11.8318C26.3248 11.8318 25.6668 11.1244 25.6668 10.2543C25.6668 9.38415 26.3248 8.67672 27.1335 8.67672ZM16.8668 5.52165C17.6754 5.52165 18.3335 6.22908 18.3335 7.09919C18.3335 7.96929 17.6754 8.67672 16.8668 8.67672C16.0582 8.67672 15.4001 7.96929 15.4001 7.09919C15.4001 6.22908 16.0582 5.52165 16.8668 5.52165ZM7.33346 13.4093C8.14209 13.4093 8.80013 14.1168 8.80013 14.9869C8.80013 15.857 8.14209 16.5644 7.33346 16.5644C6.52483 16.5644 5.8668 15.857 5.8668 14.9869C5.8668 14.1168 6.52483 13.4093 7.33346 13.4093Z" fill="#21A038"/>
<path d="M41.8001 39.2672H40.1887V15.7763C40.1887 14.4713 39.202 13.41 37.9887 13.41H35.3447C34.1314 13.41 33.1447 14.4713 33.1447 15.7763V39.2672H30.6553V30.6767C30.6553 30.2411 30.3273 29.8879 29.922 29.8879C29.5167 29.8879 29.1887 30.2411 29.1887 30.6767V39.2672H25.0781V22.8752C25.0781 22.4404 25.4068 22.0865 25.8114 22.0865H28.4553C28.86 22.0865 29.1887 22.4404 29.1887 22.8752V27.7251C29.1887 28.1607 29.5167 28.5139 29.922 28.5139C30.3273 28.5139 30.6553 28.1607 30.6553 27.7251V22.8752C30.6553 21.5702 29.6687 20.5089 28.4553 20.5089H25.8114C24.5981 20.5089 23.6114 21.5702 23.6114 22.8752V39.2672H20.3887V19.7202C20.3887 18.4151 19.402 17.3539 18.1887 17.3539H15.5447C14.3314 17.3539 13.3447 18.4151 13.3447 19.7202V39.2672H10.8553V27.6079C10.8553 26.3028 9.86866 25.2416 8.65534 25.2416H6.01141C4.7981 25.2416 3.81141 26.3028 3.81141 27.6079V39.2672H2.2C0.98669 39.2672 0 40.3285 0 41.6335C0 42.9385 0.98669 43.9998 2.2 43.9998H10.1219C10.5272 43.9998 10.8553 43.6466 10.8553 43.211C10.8553 42.7755 10.5272 42.4223 10.1219 42.4223H2.2C1.79536 42.4223 1.46667 42.0684 1.46667 41.6335C1.46667 41.1986 1.79536 40.8447 2.2 40.8447H41.8C42.2046 40.8447 42.5333 41.1986 42.5333 41.6335C42.5333 42.0684 42.2046 42.4223 41.8 42.4223H13.2075C12.8022 42.4223 12.4742 42.7755 12.4742 43.211C12.4742 43.6466 12.8022 43.9998 13.2075 43.9998H41.8C43.0133 43.9998 44 42.9385 44 41.6335C44 40.3285 43.0134 39.2672 41.8001 39.2672ZM5.27841 39.2672V27.6079C5.27841 27.173 5.6071 26.8191 6.01174 26.8191H8.65568C9.06032 26.8191 9.38901 27.173 9.38901 27.6079V39.2672H5.27841ZM14.8117 39.2672V19.7202C14.8117 19.2853 15.1404 18.9314 15.5451 18.9314H18.189C18.5937 18.9314 18.9223 19.2853 18.9223 19.7202V39.2672H14.8117ZM34.6117 39.2672V15.7763C34.6117 15.3415 34.9404 14.9876 35.3451 14.9876H37.989C38.3937 14.9876 38.7223 15.3415 38.7223 15.7763V39.2672H34.6117Z" fill="#21A038"/>
</svg>
