<svg width="44" height="28" viewBox="0 0 44 28" fill="none" xmlns="http://www.w3.org/2000/svg">
<path d="M41.8 0H2.2C0.98669 0 0 0.933994 0 2.08251V14C0 14.3836 0.328366 14.6942 0.733333 14.6942C1.1383 14.6942 1.46667 14.3836 1.46667 14V2.08251C1.46667 1.69948 1.79569 1.38834 2.2 1.38834H41.8C42.2046 1.38834 42.5333 1.69948 42.5333 2.08251V25.9175C42.5333 26.3005 42.2046 26.6117 41.8 26.6117H2.2C1.79569 26.6117 1.46667 26.3005 1.46667 25.9175V16.9758C1.46667 16.5922 1.1383 16.2816 0.733333 16.2816C0.328366 16.2816 0 16.5922 0 16.9758V25.9175C0 27.066 0.98669 28 2.2 28H41.8C43.0133 28 44 27.066 44 25.9175V2.08251C44 0.933994 43.0133 0 41.8 0Z" fill="#21A038"/>
<path d="M7.10911 19.712C6.30016 19.712 5.64245 19.0891 5.64245 18.3237C5.64245 17.9401 5.31408 17.6295 4.90911 17.6295C4.50415 17.6295 4.17578 17.9401 4.17578 18.3237C4.17578 19.6138 5.11436 20.6913 6.37578 21.0018V21.815C6.37578 22.1987 6.70415 22.5092 7.10911 22.5092C7.51408 22.5092 7.84245 22.1987 7.84245 21.815V21.0018C9.10387 20.6913 10.0424 19.6141 10.0424 18.3237C10.0424 16.7922 8.72639 15.547 7.10911 15.547C6.30016 15.547 5.64245 14.9241 5.64245 14.1587C5.64245 13.3932 6.30016 12.7703 7.10911 12.7703C7.91807 12.7703 8.57578 13.3932 8.57578 14.1587C8.57578 14.5423 8.90415 14.8529 9.30911 14.8529C9.71408 14.8529 10.0424 14.5423 10.0424 14.1587C10.0424 12.8686 9.10387 11.7911 7.84245 11.4805V10.6674C7.84245 10.2837 7.51408 9.97321 7.10911 9.97321C6.70415 9.97321 6.37578 10.2837 6.37578 10.6674V11.4805C5.11436 11.7911 4.17578 12.8682 4.17578 14.1587C4.17578 15.6902 5.49184 16.9354 7.10911 16.9354C7.91807 16.9354 8.57578 17.5583 8.57578 18.3237C8.57578 19.0891 7.91807 19.712 7.10911 19.712Z" fill="#21A038"/>
<path d="M25.812 22.7829C25.812 23.1665 26.1401 23.477 26.5453 23.477H39.0925C39.4978 23.477 39.8258 23.1665 39.8258 22.7829C39.8258 22.3992 39.4978 22.0887 39.0925 22.0887H26.5453C26.1401 22.0887 25.812 22.3992 25.812 22.7829Z" fill="#21A038"/>
<path d="M26.679 20.0389C26.8093 20.4015 27.2261 20.5927 27.61 20.4706C28.0134 20.3398 28.9795 20.007 30.03 19.5059C32.1969 20.3147 33.9072 20.5803 35.2184 20.5803C37.6403 20.5803 38.6994 19.6738 38.7662 19.6143C39.0569 19.3552 39.069 18.9288 38.8019 18.649C38.5334 18.3682 38.0734 18.3465 37.7713 18.5948C37.7526 18.609 36.0581 19.9363 31.6712 18.5907C33.0003 17.71 34.0437 16.5671 33.7052 15.2386C33.4862 14.3771 32.6662 13.8747 31.5046 13.9181C29.9747 13.9636 27.6588 14.9987 27.3632 16.5829C27.2529 17.1766 27.394 17.9557 28.4059 18.6849C27.9692 18.8665 27.5374 19.0258 27.1347 19.1569C26.7516 19.2818 26.5473 19.6763 26.6793 20.0388L26.679 20.0389ZM28.8073 16.8243C28.9334 16.1484 30.3942 15.3396 31.5502 15.3058C31.8078 15.2983 32.2157 15.3237 32.2799 15.5639C32.4675 16.3008 31.3561 17.2005 29.948 17.9569C29.161 17.5847 28.7419 17.1754 28.8071 16.8243L28.8073 16.8243Z" fill="#21A038"/>
<path d="M39.8244 9.67007V5.2162C39.8244 4.83255 39.4964 4.52203 39.0911 4.52203H27.372C26.9667 4.52203 26.6387 4.83255 26.6387 5.2162V9.67007C26.6387 10.0537 26.9667 10.3642 27.372 10.3642H33.2315C33.6368 10.3642 33.9648 10.0537 33.9648 9.67007C33.9648 9.28642 33.6368 8.9759 33.2315 8.9759H28.1053V5.91037H38.3578V8.9759H36.0998C35.6946 8.9759 35.3665 9.28642 35.3665 9.67007C35.3665 10.0537 35.6946 10.3642 36.0998 10.3642H39.0911C39.4964 10.3642 39.8244 10.0537 39.8244 9.67007Z" fill="#21A038"/>
<path d="M14.0634 5.91129H21.2518C21.6567 5.91129 21.9851 5.60077 21.9851 5.21712C21.9851 4.83347 21.6567 4.52295 21.2518 4.52295H14.0634C13.6584 4.52295 13.3301 4.83347 13.3301 5.21712C13.3301 5.60077 13.6584 5.91129 14.0634 5.91129Z" fill="#21A038"/>
<path d="M14.0634 10.3642H21.2518C21.6567 10.3642 21.9851 10.0536 21.9851 9.67C21.9851 9.28635 21.6567 8.97583 21.2518 8.97583H14.0634C13.6584 8.97583 13.3301 9.28635 13.3301 9.67C13.3301 10.0536 13.6584 10.3642 14.0634 10.3642Z" fill="#21A038"/>
<path d="M14.0634 23.477H21.2518C21.6567 23.477 21.9851 23.1665 21.9851 22.7829C21.9851 22.3992 21.6567 22.0887 21.2518 22.0887H14.0634C13.6584 22.0887 13.3301 22.3992 13.3301 22.7829C13.3301 23.1665 13.6584 23.477 14.0634 23.477Z" fill="#21A038"/>
</svg>
