<svg width="44" height="44" viewBox="0 0 44 44" fill="none" xmlns="http://www.w3.org/2000/svg">
<path d="M33.5263 27.0775C31.6884 27.0775 30.1934 28.3487 30.1934 29.911C30.1934 31.4733 31.6885 32.7445 33.5263 32.7445C35.3633 32.7445 36.8585 31.4733 36.8585 29.911C36.8585 28.3487 35.3633 27.0775 33.5263 27.0775ZM33.5263 31.2777C32.6395 31.2777 31.9184 30.6645 31.9184 29.9109C31.9184 29.1572 32.6396 28.544 33.5263 28.544C34.4123 28.544 35.1335 29.1572 35.1335 29.9109C35.1335 30.6645 34.4123 31.2777 33.5263 31.2777Z" fill="#21A038"/>
<path d="M10.4727 27.0775C8.63527 27.0775 7.14014 28.3487 7.14014 29.911C7.14014 31.4733 8.63527 32.7445 10.4727 32.7445C12.3102 32.7445 13.8054 31.4733 13.8054 29.911C13.8054 28.3487 12.3102 27.0775 10.4727 27.0775ZM10.4727 31.2777C9.58637 31.2777 8.86514 30.6645 8.86514 29.9109C8.86514 29.1572 9.58633 28.544 10.4727 28.544C11.3591 28.544 12.0803 29.1572 12.0803 29.9109C12.0803 30.6645 11.3592 31.2777 10.4727 31.2777Z" fill="#21A038"/>
<path d="M42.313 18.9756H38.6959L37.6763 13.8505C37.2924 12.1999 35.5774 11.0017 33.5987 11.0017H33.065C33.1528 10.5217 33.2121 10.0339 33.2121 9.53333C33.2121 4.27655 28.1819 0 21.9996 0C15.8169 0 10.787 4.27655 10.787 9.53333C10.787 11.0687 11.2264 12.5154 11.988 13.8014C10.6804 13.7477 9.52335 14.559 9.36011 15.6822L8.4541 23.0401H6.24433L8.01556 14.1336C8.14532 13.5751 8.54577 13.0817 9.11483 12.7803C9.51913 12.5662 9.64234 12.1134 9.39052 11.7703C9.1387 11.4265 8.60734 11.3218 8.20264 11.5359C7.22963 12.0515 6.54506 12.8952 6.31943 13.8698L5.30365 18.9753H1.68577C0.75627 18.9753 0 19.618 0 20.4083V23.0735C0 23.8638 0.756231 24.5068 1.68577 24.5068H2.87366C2.77701 24.7373 2.71463 24.9818 2.71463 25.2401V34.5816C2.71463 34.8562 2.78125 35.1165 2.88982 35.3591C1.74935 35.5594 0.889115 36.4201 0.889115 37.4481C0.889115 38.6244 2.015 39.5816 3.39845 39.5816H4.10886V41.8C4.10886 43.0133 5.26934 44 6.69636 44H10.9576C12.3846 44 13.5451 43.0133 13.5451 41.8V39.5816H27.6704C28.1471 39.5816 28.5329 39.2533 28.5329 38.8483C28.5329 38.4433 28.1471 38.115 27.6704 38.115H3.39816C2.96575 38.115 2.61382 37.8161 2.61382 37.4481C2.61382 37.0805 2.96537 36.7812 3.39816 36.7812L40.602 36.7816C41.0341 36.7816 41.3864 37.0805 41.3864 37.4484C41.3864 37.8161 41.0345 38.1153 40.602 38.1153H31.3175C30.7141 38.1104 30.3976 38.5844 30.455 39.0412V41.8C30.455 43.0133 31.6155 44 33.0425 44H37.3037C38.7308 44 39.8912 43.0133 39.8912 41.8V39.5816H40.602C41.9859 39.5816 43.1114 38.6244 43.1114 37.4481C43.1114 36.4198 42.2512 35.5591 41.1103 35.3587C41.2189 35.1161 41.2855 34.8559 41.2855 34.5812V25.2398C41.2855 24.9815 41.2231 24.7369 41.1264 24.5065H42.3139C43.2438 24.5065 44 23.8635 44 23.0732V20.4079C44 19.6176 43.2438 18.975 42.3139 18.975L42.313 18.9756ZM11.8199 39.5819V41.8002C11.8199 42.2045 11.4329 42.5336 10.9574 42.5336H6.69611C6.22058 42.5336 5.83361 42.2045 5.83361 41.8002V39.5819H11.8199ZM38.1661 41.8002C38.1661 42.2045 37.7795 42.5336 37.3036 42.5336H33.0423C32.5664 42.5336 32.1798 42.2045 32.1798 41.8002V39.5819H38.1661V41.8002ZM33.5991 12.4686C34.7565 12.4686 35.7596 13.1692 35.9794 14.1153L37.7548 23.041H35.5455L34.6375 15.6671C34.4758 14.5599 33.3172 13.748 32.0115 13.8023C32.2652 13.3741 32.4866 12.9309 32.663 12.4689L33.5991 12.4686ZM22.0001 1.46692C27.2317 1.46692 31.4877 5.08547 31.4877 9.53358C31.4877 13.9817 27.2317 17.6002 22.0001 17.6002C16.7686 17.6002 12.5126 13.9817 12.5126 9.53358C12.5126 5.08547 16.7686 1.46692 22.0001 1.46692ZM11.0745 15.8511C11.1237 15.5188 11.458 15.2684 11.8523 15.2684H13.0648C15.1136 17.5702 18.3511 19.067 22.0005 19.067C25.6496 19.067 28.887 17.5706 30.9358 15.2691H32.1494C32.5429 15.2691 32.8772 15.5198 32.9253 15.8358L33.8121 23.0408H10.1894L11.0745 15.8511ZM1.6867 20.4426H5.0127L4.7913 21.5548L4.49405 23.0476L1.72556 23.0741L1.68629 20.4427L1.6867 20.4426ZM5.30309 35.3155C4.82756 35.3155 4.44059 34.9864 4.44059 34.5821V25.2407C4.44059 24.8364 4.82756 24.5074 5.30309 24.5074H38.6982C39.1741 24.5074 39.5607 24.8364 39.5607 25.2407V34.5821C39.5607 34.9864 39.1741 35.3155 38.6982 35.3155H5.30309ZM39.5055 23.0407L38.9868 20.4348L42.2751 20.4089L42.314 23.0407L39.5055 23.0407Z" fill="#21A038"/>
<path d="M21.9993 13.2005C21.0479 13.2005 20.2743 12.5428 20.2743 11.7338C20.2743 11.3288 19.8881 11.0005 19.4118 11.0005C18.9355 11.0005 18.5493 11.3288 18.5493 11.7338C18.5493 13.0967 19.6532 14.235 21.1368 14.5631V15.4224C21.1368 15.8274 21.523 16.1558 21.9993 16.1558C22.4756 16.1558 22.8618 15.8274 22.8618 15.4224V14.5631C24.3458 14.235 25.4493 13.0967 25.4493 11.7338C25.4493 10.1165 23.9022 8.80049 21.9993 8.80049C21.0479 8.80049 20.2743 8.14277 20.2743 7.33382C20.2743 6.52487 21.0479 5.86715 21.9993 5.86715C22.9504 5.86715 23.7243 6.52487 23.7243 7.33382C23.7243 7.73879 24.1101 8.06715 24.5868 8.06715C25.0635 8.06715 25.4493 7.73879 25.4493 7.33382C25.4493 5.97091 24.3458 4.83261 22.8618 4.50458V3.6452C22.8618 3.24023 22.4756 2.91187 21.9993 2.91187C21.523 2.91187 21.1368 3.24023 21.1368 3.6452V4.50458C19.6532 4.83262 18.5493 5.97091 18.5493 7.33382C18.5493 8.95109 20.0972 10.2672 21.9993 10.2672C22.9504 10.2672 23.7243 10.9249 23.7243 11.7338C23.7243 12.5428 22.9504 13.2005 21.9993 13.2005Z" fill="#21A038"/>
</svg>
