<svg width="12" height="11" viewBox="0 0 12 11" fill="none" xmlns="http://www.w3.org/2000/svg">
<path fill-rule="evenodd" clip-rule="evenodd" d="M9.44837 1.64222C8.95202 1.14207 8.36152 0.745501 7.71106 0.475501C7.06061 0.205501 6.36312 0.0674299 5.65901 0.0692857C2.7074 0.0692857 0.302636 2.47538 0.302636 5.43137C0.300399 6.37261 0.546903 7.29767 1.01712 8.11264L0.257812 10.8918L3.09781 10.1448C3.88311 10.5732 4.76296 10.7981 5.65722 10.7988H5.65946C8.61152 10.7988 11.0136 8.3932 11.0154 5.43496C11.0154 4.00253 10.4587 2.65584 9.44837 1.64178V1.64222ZM5.65901 9.89252H5.65722C4.86006 9.89251 4.07754 9.6781 3.3914 9.27169L3.2287 9.17518L1.54245 9.61734L1.99247 7.97213L1.88759 7.8038C1.44141 7.09325 1.2052 6.27073 1.20627 5.43137C1.20627 2.975 3.20404 0.97606 5.6608 0.97606C6.24549 0.974596 6.82465 1.0893 7.36477 1.31353C7.90488 1.53775 8.39522 1.86705 8.80739 2.28235C9.2216 2.69566 9.54993 3.18707 9.77342 3.72818C9.99692 4.26929 10.1111 4.84939 10.1095 5.43496C10.1095 7.89358 8.11174 9.89252 5.65856 9.89252H5.65901ZM8.09964 6.55362C7.96651 6.48718 7.30806 6.16307 7.18569 6.11908C7.06332 6.0733 6.97368 6.0522 6.88448 6.18552C6.79483 6.32019 6.53934 6.6223 6.4609 6.71163C6.3838 6.79916 6.30491 6.81173 6.17179 6.74485C6.03732 6.67841 5.60657 6.53611 5.09514 6.07868C4.69755 5.72405 4.42817 5.28413 4.35107 5.15081C4.27218 5.01614 4.3421 4.94432 4.40889 4.87698C4.46985 4.81773 4.54336 4.72122 4.61015 4.64221C4.67649 4.56545 4.69979 4.50934 4.74462 4.41956C4.78854 4.33022 4.76613 4.25122 4.73252 4.18478C4.69935 4.11835 4.43175 3.45712 4.31969 3.18868C4.21077 2.92742 4.10051 2.96423 4.01848 2.95929C3.94139 2.9557 3.85219 2.9557 3.76299 2.9557C3.67334 2.9557 3.52812 2.98892 3.4053 3.12404C3.28293 3.25736 2.93779 3.58191 2.93779 4.24089C2.93779 4.90033 3.4174 5.53821 3.48464 5.62799C3.55098 5.71552 4.42817 7.06895 5.77062 7.64983C6.01938 7.75757 6.27374 7.85182 6.53262 7.93218C6.8531 8.03363 7.14535 8.01972 7.37664 7.98605C7.63392 7.94789 8.16777 7.66195 8.27983 7.34817C8.39054 7.03618 8.39054 6.76774 8.35692 6.71163C8.32375 6.65552 8.23455 6.62185 8.09964 6.55362Z" fill="white"/>
</svg>
