<svg width="11" height="10" viewBox="0 0 11 10" fill="none" xmlns="http://www.w3.org/2000/svg">
<path d="M8.95601 4.39163C8.96721 3.03399 7.8179 1.78949 6.39421 1.6172C6.36345 1.61334 6.33279 1.60864 6.30228 1.60312C6.23072 1.58933 6.15815 1.58148 6.0853 1.57964C5.79319 1.57964 5.71526 1.7862 5.69473 1.90873C5.67467 2.02843 5.6938 2.12937 5.75119 2.20776C5.84779 2.33968 6.01811 2.36315 6.15483 2.38193C6.19449 2.38756 6.23229 2.39273 6.26402 2.39977C7.54352 2.68754 7.97422 3.13962 8.18467 4.41604C8.18981 4.44703 8.19214 4.48552 8.19494 4.52636C8.20427 4.67893 8.22294 4.99628 8.56218 4.99628C8.59018 4.99628 8.62097 4.99393 8.6527 4.98924C8.96815 4.94089 8.95835 4.65077 8.95368 4.51134C8.95228 4.47191 8.95088 4.43482 8.95461 4.40994C8.95536 4.40371 8.95567 4.39744 8.95555 4.39116L8.95601 4.39163Z" fill="white"/>
<path d="M6.00243 1.11891C6.0407 1.12173 6.07616 1.12455 6.10602 1.12877C8.20726 1.4541 9.17366 2.45543 9.44104 4.58578C9.4457 4.62193 9.44664 4.66606 9.4471 4.71253C9.4499 4.87919 9.4555 5.22564 9.82508 5.23268H9.83627C9.95247 5.23268 10.0444 5.19747 10.1107 5.12799C10.2254 5.00735 10.218 4.82755 10.211 4.68296C10.2096 4.64728 10.2082 4.61395 10.2082 4.58437C10.2352 2.40614 8.36032 0.430235 6.19702 0.357002C6.18769 0.357002 6.17929 0.357002 6.17089 0.35841C6.16238 0.35949 6.1538 0.359961 6.14522 0.359818C6.12329 0.359818 6.09716 0.35794 6.06869 0.356063C6.0351 0.353715 5.99637 0.350899 5.9567 0.350899C5.61233 0.350899 5.547 0.597359 5.5386 0.744296C5.51947 1.08371 5.84564 1.10765 6.00243 1.11891ZM9.33978 7.33909C9.2947 7.30461 9.25005 7.26956 9.20586 7.23393C8.97627 7.04803 8.73222 6.87715 8.49658 6.71144L8.34959 6.60816C8.04721 6.39456 7.77563 6.29081 7.51898 6.29081C7.17274 6.29081 6.8713 6.48329 6.62212 6.86213C6.51199 7.03019 6.37807 7.11188 6.21335 7.11188C6.09894 7.10785 5.98667 7.07954 5.88391 7.02879C4.90865 6.58375 4.2115 5.90117 3.813 5.0003C3.62028 4.56466 3.68281 4.28017 4.02158 4.04826C4.2143 3.91682 4.57221 3.67224 4.54748 3.20326C4.51855 2.67138 3.3515 1.07009 2.85967 0.888416C2.64942 0.811258 2.41895 0.810594 2.20826 0.886538C1.64316 1.0776 1.23813 1.41373 1.03514 1.85735C0.83916 2.28643 0.848492 2.79015 1.06034 3.31405C1.67396 4.82896 2.5363 6.14998 3.62401 7.24004C4.6884 8.30709 5.99683 9.18073 7.51245 9.83749C7.64917 9.89664 7.79243 9.92903 7.89742 9.9525C7.93289 9.96048 7.96368 9.96752 7.98608 9.97363C7.99841 9.97697 8.01111 9.9787 8.02388 9.97879H8.03601C8.74902 9.97879 9.60529 9.32344 9.868 8.57655C10.0985 7.92214 9.67762 7.59869 9.33978 7.33909ZM6.31787 2.84977C6.19608 2.85258 5.94177 2.85916 5.85264 3.11923C5.81065 3.24129 5.81578 3.34644 5.86758 3.43329C5.94317 3.56004 6.08829 3.59947 6.21988 3.62107C6.69818 3.69806 6.94409 3.96376 6.99309 4.45809C7.01596 4.68812 7.17041 4.84914 7.36779 4.84914C7.38277 4.84912 7.39773 4.84818 7.41259 4.84633C7.65057 4.81816 7.76583 4.64212 7.75557 4.32336C7.7593 3.99099 7.58665 3.61356 7.2922 3.31311C6.99729 3.01173 6.64172 2.84179 6.31787 2.84977Z" fill="white"/>
</svg>
