<svg width="109" height="84" viewBox="0 0 109 84" fill="none" xmlns="http://www.w3.org/2000/svg">
<g clip-path="url(#clip0_949_622)">
<path fill-rule="evenodd" clip-rule="evenodd" d="M54.5001 63.5528L48.8164 65.7335V55.5688H60.1844V65.7335L54.5001 63.5528Z" fill="#21A038"/>
<path fill-rule="evenodd" clip-rule="evenodd" d="M49.5176 55.6835V64.7137L54.5002 62.8019L59.4833 64.7137V55.6835H59.2647V64.396L54.5002 62.5678L49.7357 64.396V55.6835H49.5176Z" fill="white"/>
<path fill-rule="evenodd" clip-rule="evenodd" d="M50.4048 55.5938V63.9054L50.6174 63.8237V55.5938H50.4048ZM50.8738 55.5938V63.7256L51.0865 63.6439V55.5938H50.8738ZM51.3429 55.5938V63.5453L51.5555 63.4637V55.5938H51.3429ZM51.8125 55.5938V63.3656L52.0251 63.2839V55.5943H51.8125V55.5938ZM52.2821 55.5938V63.1853L52.4947 63.1036V55.5938H52.2821ZM52.7512 55.5938V63.005L52.9638 62.9233V55.5938H52.7512ZM53.2202 55.5938V62.8252L53.4329 62.7436V55.5938H53.2202ZM53.6898 55.5938V62.645L53.9024 62.5633V55.5938H53.6898ZM54.1589 55.5938V62.4652L54.3715 62.3835V55.5938H54.1589ZM54.6285 55.5938V62.3835L54.8411 62.4652V55.5938H54.6285ZM55.0976 55.5938V62.5633L55.3107 62.645V55.5938H55.0976ZM55.5666 55.5938V62.7436L55.7798 62.8252V55.5938H55.5666ZM56.0362 55.5938V62.9233L56.2488 63.005V55.5938H56.0362ZM56.5053 55.5938V63.1036L56.7179 63.1853V55.5938H56.5053ZM56.9749 55.5938V63.2834L57.188 63.3651V55.5933H56.9749V55.5938ZM57.444 55.5938V63.4637L57.6571 63.5453V55.5938H57.444ZM57.9135 55.5938V63.6439L58.1262 63.7256V55.5938H57.9135ZM58.3826 55.5938V63.8237L58.5952 63.9054V55.5938H58.3826ZM58.8522 55.5938V64.004L59.0464 64.0787V55.5943H58.8522V55.5938ZM50.1483 64.004V55.5938H49.9541V64.0782L50.1483 64.004Z" fill="white"/>
<path fill-rule="evenodd" clip-rule="evenodd" d="M63.7669 45.0053C61.7586 47.0028 57.9935 48.2075 55.3458 48.0013C60.7119 48.6158 66.1198 44.1951 73.8118 45.956C70.3246 44.966 65.4908 45.717 62.6554 46.4585C62.6704 46.45 62.6858 46.4411 62.7007 46.4321C62.6126 46.462 62.526 46.4894 62.4413 46.5138C63.2948 45.9107 64.356 45.0073 65.5167 44.2997C66.8099 43.5113 68.2052 42.9486 69.1215 42.9541C67.7949 42.8266 66.1969 43.6553 64.8514 44.3893C65.4634 43.7354 66.067 43.0796 66.9563 42.6652C66.4454 42.7215 65.9729 43.0128 65.5142 43.4013C66.056 42.6403 66.5729 41.8689 67.4334 41.3152C66.8757 41.4501 66.43 41.966 65.9843 42.4934C65.7841 42.73 65.197 43.6189 64.2619 44.5955C64.1423 44.719 63.9407 44.8878 63.7669 45.0053ZM58.8799 49.2319C58.9874 48.8778 59.0711 48.6308 59.1916 48.4331C57.5389 48.7757 55.914 48.9037 53.6543 48.5491C53.5472 48.5322 53.4386 48.5138 53.3296 48.4948C53.8241 48.2911 54.1343 48.1552 54.1343 48.1552L56.5858 47.1358C61.7437 46.8898 64.5153 44.1309 65.7159 42.1448C66.3423 41.108 67.1779 40.3147 68.8227 40.5726C68.2859 40.8645 67.5399 41.4984 67.3049 42.5731C69.243 42.2165 71.8916 42.6911 73.2371 44.9117C72.1999 44.6 70.3883 44.348 69.9541 44.3286C68.7565 44.2743 67.5673 44.46 66.416 44.8101C67.6241 44.2703 69.3226 43.6214 70.4724 43.7534C68.7435 43.3913 66.6685 44.5158 64.8151 45.4675L64.9007 45.4506C66.7014 45.095 68.6863 44.8649 70.5227 44.9954C72.6605 45.1473 79.2411 46.1199 78.286 49.5297C78.036 50.4216 77.2592 51.2204 76.3051 51.2298C77.1068 51.432 78.2845 51.0057 78.5539 49.3853C78.7282 51.8563 75.5118 53.3638 74.0956 50.4256C74.3272 51.5431 75.2972 52.1487 76.0003 52.3648C74.3202 52.3623 72.6246 50.6347 73.401 48.8414C74.3571 46.6338 76.8329 47.9655 76.1248 49.6158C75.5532 50.949 74.3551 49.8738 75.0014 48.713C73.7271 50.2423 75.7648 51.2572 76.9206 50.2478C77.3095 49.9082 77.5878 49.4037 77.5176 48.8126C77.3269 47.2055 74.1803 46.1737 70.6527 46.2025C69.2997 46.2135 67.9886 46.4127 66.6705 46.6607C67.8726 46.7379 69.0617 46.9675 70.206 47.3569C70.9241 46.5795 72.5499 47.6328 72.6585 48.3604C72.1451 48.7936 70.5028 48.5939 70.2021 47.7508C70.6627 47.839 71.1611 47.9201 71.6646 48.0332C69.8759 47.3808 67.9697 47.1243 66.0705 47.2379C66.6272 47.3564 67.1715 47.5297 67.6948 47.7598C68.1773 47.3201 69.121 48.0531 69.1489 48.5058C68.8107 48.7448 67.8118 48.5357 67.6719 48.0013C67.9503 48.08 68.252 48.1557 68.5553 48.2518C65.8469 46.9909 61.3677 47.3624 58.8799 49.2319Z" fill="#21A038"/>
<path fill-rule="evenodd" clip-rule="evenodd" d="M45.2328 45.0053C47.2411 47.0028 51.0061 48.2075 53.6538 48.0013C48.2878 48.6158 42.8799 44.1951 35.1879 45.956C38.6751 44.966 43.5088 45.717 46.3442 46.4585C46.3293 46.45 46.3138 46.4411 46.2989 46.4321C46.387 46.462 46.4737 46.4894 46.5583 46.5138C45.7048 45.9107 44.6437 45.0073 43.4829 44.2997C42.1897 43.5113 40.7944 42.9486 39.8782 42.9541C41.2048 42.8266 42.8027 43.6553 44.1482 44.3893C43.5362 43.7354 42.9327 43.0796 42.0433 42.6652C42.5542 42.7215 43.0268 43.0128 43.4854 43.4013C42.9436 42.6403 42.4268 41.8689 41.5663 41.3152C42.1235 41.4501 42.5697 41.966 43.0153 42.4934C43.2155 42.73 43.8026 43.6189 44.7378 44.5955C44.8573 44.719 45.0595 44.8878 45.2328 45.0053ZM50.1203 49.2319C50.0132 48.8778 49.9291 48.6308 49.8085 48.4331C51.4613 48.7757 53.0861 48.9037 55.3459 48.5491C55.4529 48.5322 55.5615 48.5138 55.6706 48.4948C55.1761 48.2911 54.8654 48.1552 54.8654 48.1552L52.4139 47.1358C47.2555 46.8898 44.4843 44.1309 43.2837 42.1448C42.6573 41.108 41.8217 40.3147 40.177 40.5726C40.7138 40.8645 41.4597 41.4984 41.6947 42.5731C39.7572 42.2165 37.108 42.6911 35.7625 44.9117C36.7998 44.6 38.6114 44.348 39.0456 44.3286C40.2432 44.2743 41.4323 44.46 42.5836 44.8101C41.3756 44.2703 39.677 43.6214 38.5272 43.7534C40.2561 43.3913 42.3311 44.5158 44.1846 45.4675L44.0989 45.4506C42.2983 45.095 40.3134 44.8649 38.4769 44.9954C36.3392 45.1473 29.7586 46.1199 30.7137 49.5297C30.9637 50.4216 31.7405 51.2204 32.6946 51.2298C31.8929 51.432 30.7152 51.0057 30.4458 49.3853C30.2715 51.8563 33.4878 53.3638 34.904 50.4256C34.6725 51.5431 33.7025 52.1487 32.9993 52.3648C34.6795 52.3623 36.375 50.6347 35.5987 48.8414C34.6426 46.6338 32.1667 47.9655 32.8748 49.6158C33.4465 50.949 34.6446 49.8738 33.9982 48.713C35.2725 50.2423 33.2349 51.2572 32.0791 50.2478C31.6902 49.9082 31.4118 49.4037 31.482 48.8126C31.6728 47.2055 34.8194 46.1737 38.3469 46.2025C39.6999 46.2135 41.011 46.4127 42.3292 46.6607C41.1271 46.7379 39.9379 46.9675 38.7936 47.3569C38.0756 46.5795 36.4497 47.6328 36.3412 48.3604C36.8546 48.7936 38.4968 48.5939 38.7976 47.7508C38.337 47.839 37.839 47.9201 37.3356 48.0332C39.1243 47.3808 41.0305 47.1243 42.9297 47.2379C42.373 47.3564 41.8282 47.5297 41.3053 47.7598C40.8228 47.3201 39.8792 48.0531 39.8513 48.5058C40.1894 48.7448 41.1883 48.5357 41.3282 48.0013C41.0499 48.08 40.7481 48.1557 40.4449 48.2518C43.1528 46.9909 47.6325 47.3624 50.1203 49.2319Z" fill="#21A038"/>
<path fill-rule="evenodd" clip-rule="evenodd" d="M27.166 56.8089H15.9339C15.917 56.301 15.4962 55.8901 14.9843 55.8901C14.4724 55.8901 14.0516 56.3005 14.0347 56.8089H10.9294C10.541 56.0316 9.89515 55.0625 9.27718 55.312C8.62983 55.5734 6.94572 57.3249 6.19629 57.6247C6.94572 57.9245 8.62884 59.6779 9.27718 59.9374C9.90013 60.1864 10.55 59.2123 10.9374 58.4245H14.0342C14.0427 58.9399 14.4669 59.3587 14.9843 59.3587C15.5017 59.3587 15.926 58.9399 15.9344 58.4245H27.166V56.8089Z" fill="#21A038"/>
<path fill-rule="evenodd" clip-rule="evenodd" d="M14.4839 56.81C14.4998 56.5485 14.7204 56.3388 14.9843 56.3388C15.2527 56.3388 15.4763 56.5555 15.4853 56.8234L15.4997 57.2577H27.166V57.4713H15.4365L15.422 57.037C15.4131 56.7691 15.189 56.5525 14.9211 56.5525C14.7353 56.553 14.5705 56.6571 14.4839 56.81ZM7.15982 57.7073L7.15086 57.7004C7.11849 57.6755 7.08513 57.6501 7.05127 57.6247C7.08563 57.5993 7.11849 57.5739 7.15136 57.549C7.44615 57.3234 7.73049 57.0819 8.01283 56.8413C8.30066 56.5958 8.58748 56.3468 8.88377 56.1118C9.02619 55.9987 9.27816 55.7955 9.44547 55.7283C9.45742 55.7233 9.46838 55.7208 9.48083 55.7208C9.72981 55.7218 10.1411 56.3314 10.2557 56.5166C10.3538 56.6765 10.4444 56.8418 10.528 57.0092L10.652 57.2577H14.4126L14.4057 57.4713H10.5888L10.4648 57.2228C10.3811 57.055 10.2905 56.8896 10.1924 56.7303C10.0784 56.5445 9.66657 55.9355 9.41759 55.9345C9.40514 55.9345 9.39368 55.937 9.38223 55.9419C9.21492 56.0097 8.96295 56.2124 8.82053 56.3254C8.52424 56.5605 8.23742 56.8095 7.94959 57.055C7.68966 57.2761 7.42872 57.4982 7.15982 57.7073Z" fill="white"/>
<path fill-rule="evenodd" clip-rule="evenodd" d="M81.834 56.8089H93.066C93.083 56.301 93.5037 55.8901 94.0156 55.8901C94.5275 55.8901 94.9483 56.3005 94.9653 56.8089H98.0705C98.459 56.0316 99.1048 55.0625 99.7228 55.312C100.37 55.5734 102.054 57.3249 102.804 57.6247C102.054 57.9245 100.371 59.6779 99.7228 59.9374C99.0998 60.1864 98.45 59.2123 98.0626 58.4245H94.9658C94.9573 58.9399 94.533 59.3587 94.0156 59.3587C93.4983 59.3587 93.074 58.9399 93.0655 58.4245H81.834V56.8089Z" fill="#21A038"/>
<path fill-rule="evenodd" clip-rule="evenodd" d="M94.5161 56.81C94.5002 56.5485 94.2796 56.3388 94.0156 56.3388C93.7472 56.3388 93.5237 56.5555 93.5147 56.8234L93.5003 57.2577H81.834V57.4713H93.564L93.5784 57.037C93.5874 56.7691 93.811 56.5525 94.0794 56.5525C94.2651 56.553 94.4295 56.6571 94.5161 56.81ZM101.84 57.7073L101.849 57.7004C101.881 57.6755 101.915 57.6501 101.949 57.6247C101.915 57.5993 101.881 57.5739 101.849 57.549C101.554 57.3234 101.269 57.0819 100.987 56.8413C100.699 56.5958 100.412 56.3468 100.116 56.1118C99.9738 55.9987 99.7218 55.7955 99.5545 55.7283C99.543 55.7233 99.5316 55.7208 99.5191 55.7208C99.2701 55.7218 98.8583 56.3314 98.7443 56.5166C98.6462 56.6765 98.5556 56.8418 98.4719 57.0092L98.3479 57.2577H94.5873L94.5943 57.4713H98.4117L98.5356 57.2228C98.6193 57.055 98.7099 56.8896 98.808 56.7303C98.9221 56.5445 99.3339 55.9355 99.5829 55.9345C99.5953 55.9345 99.6068 55.937 99.6182 55.9419C99.7855 56.0097 100.038 56.2124 100.18 56.3254C100.477 56.5605 100.764 56.8095 101.051 57.055C101.31 57.2761 101.571 57.4982 101.84 57.7073Z" fill="white"/>
<path fill-rule="evenodd" clip-rule="evenodd" d="M54.501 49.688C55.4895 49.2294 56.4625 48.7368 57.4151 48.2065C61.106 46.1507 65.0872 43.1767 67.0233 39.2943C68.0361 37.2629 68.3982 35.1399 68.1696 32.8805C68.0934 32.127 67.9694 31.3765 67.8429 30.63C67.5696 29.0215 67.2434 27.4458 67.1134 25.8144C66.962 23.9075 67.456 22.2412 68.2383 20.6327C66.6473 19.5132 65.389 17.9614 64.5887 16.1855C64.1162 16.2627 63.6411 16.3265 63.1631 16.3758C60.2854 16.6726 57.3917 16.7906 54.4995 16.7906C51.6074 16.7906 48.7137 16.6726 45.836 16.3758C45.3579 16.3265 44.8829 16.2622 44.4103 16.1855C43.6101 17.9614 42.3522 19.5132 40.7607 20.6327C41.5435 22.2412 42.0375 23.9075 41.8856 25.8144C41.7562 27.4463 41.4295 29.022 41.1561 30.63C41.0291 31.3765 40.9056 32.127 40.8295 32.8805C40.6009 35.1399 40.9629 37.2629 41.9758 39.2943C44.3192 43.9914 49.6832 47.4495 54.501 49.688Z" fill="#21A038"/>
<path fill-rule="evenodd" clip-rule="evenodd" d="M66.6126 21.039C65.4892 20.0814 64.549 18.9195 63.8359 17.6262C63.6572 17.6486 63.4784 17.669 63.2991 17.6875C60.3766 17.9893 57.4376 18.1093 54.5001 18.1093C51.5627 18.1093 48.6237 17.9888 45.7011 17.6875C45.5219 17.669 45.3431 17.6486 45.1643 17.6262C44.4513 18.9195 43.5111 20.0809 42.3877 21.039C43.0166 22.5938 43.3398 24.1834 43.2019 25.9184C43.0694 27.5827 42.7368 29.2082 42.4579 30.8506C42.3359 31.5682 42.2164 32.2883 42.1432 33.0129C41.94 35.0209 42.2552 36.8963 43.1575 38.7051C45.2878 42.9774 50.2261 46.1726 54.5016 48.2288C55.27 47.8598 56.0284 47.4684 56.7733 47.0536C60.2277 45.1293 64.0406 42.3206 65.8432 38.7051C66.745 36.8959 67.0602 35.0209 66.8576 33.0129C66.7844 32.2883 66.6644 31.5682 66.5429 30.8506C66.264 29.2082 65.9314 27.5827 65.7989 25.9184C65.6605 24.1834 65.9836 22.5938 66.6126 21.039Z" fill="white"/>
<path fill-rule="evenodd" clip-rule="evenodd" d="M66.0041 21.1874C65.0406 20.3159 64.2159 19.2965 63.5586 18.176C63.4899 18.1835 63.4207 18.191 63.352 18.1984C60.412 18.5017 57.4551 18.6232 54.5002 18.6232C51.5453 18.6232 48.5884 18.5022 45.6484 18.1984C45.5797 18.1915 45.5105 18.184 45.4418 18.176C44.7839 19.2965 43.9598 20.3159 42.9963 21.1874C43.5719 22.7248 43.8453 24.3029 43.7138 25.9588C43.5809 27.636 43.2457 29.2804 42.9644 30.9363C42.8444 31.643 42.7264 32.3506 42.6542 33.0642C42.4609 34.9741 42.7587 36.7544 43.6172 38.4755C45.6673 42.587 50.4448 45.6791 54.5022 47.6577C55.1854 47.325 55.8601 46.9744 56.5239 46.6044C59.8827 44.7339 63.6318 41.9894 65.3842 38.4755C66.2421 36.7544 66.5399 34.9741 66.3472 33.0642C66.275 32.3511 66.157 31.643 66.037 30.9363C65.7556 29.2804 65.4205 27.636 65.2875 25.9588C65.1551 24.3029 65.4285 22.7253 66.0041 21.1874Z" fill="#21A038"/>
<path fill-rule="evenodd" clip-rule="evenodd" d="M35.6856 62.3581C34.7883 62.7515 33.8506 63.0931 32.888 63.2814C30.6387 63.7216 29.0512 63.6643 26.8333 63.0951L26.8099 63.0891L26.7915 63.0737C25.2174 61.7819 24.3714 59.4079 23.9989 57.4622L23.9979 57.4573L23.9944 57.4463C22.8855 54.3313 23.2774 52.9055 26.1192 51.18L26.166 51.1516L26.2163 51.172C27.5145 51.6989 28.7739 52.3264 30.077 52.8333C31.2552 53.2915 32.402 53.5968 33.6609 53.7342C34.248 53.7521 34.6553 53.78 35.1538 53.4284C40.4645 48.7766 47.4579 46.4186 54.4797 46.4186H54.5205C61.5423 46.4186 68.5357 48.7766 73.8465 53.4284C74.3444 53.7805 74.7522 53.7521 75.3393 53.7342C76.6136 53.5948 77.7963 53.3054 79.0014 52.8722C80.306 52.403 81.5753 51.8124 82.8611 51.2905L82.9114 51.2701L82.9582 51.2985C83.8943 51.8657 84.9849 52.6087 85.3962 53.672C85.8538 54.8547 85.4106 56.3109 85.0073 57.4433L85.0028 57.4578L85.0018 57.4622C84.6293 59.4079 83.7833 61.7819 82.2092 63.0737L82.1908 63.0891L82.1674 63.0951C79.9495 63.6643 78.362 63.7216 76.1127 63.2814C75.1501 63.0926 74.2125 62.7515 73.3151 62.3581C70.1162 63.7271 65.2974 65.0199 62.1294 63.0304L61.8605 62.8611L62.1767 62.8302C64.7751 62.5752 66.4422 61.6161 68.1503 59.766C66.0832 58.7406 63.9738 57.7974 61.7644 57.1201C59.4075 56.3975 56.9919 55.9453 54.5205 55.9453H54.4822C52.0108 55.9453 49.5952 56.397 47.2383 57.1201C45.0289 57.7974 42.9195 58.7411 40.8524 59.766C42.56 61.6161 44.2276 62.5752 46.826 62.8302L47.1422 62.8611L46.8728 63.0304C43.7033 65.0199 38.885 63.7271 35.6856 62.3581Z" fill="#21A038"/>
<path fill-rule="evenodd" clip-rule="evenodd" d="M27.5161 52.6153C26.3589 53.074 25.224 53.7851 24.9631 54.7741C25.0034 54.8593 25.0502 54.94 25.1035 55.0172C25.5078 53.8847 26.6213 53.1731 28.0121 52.7722L28.0046 52.7697L27.9499 52.7527C27.9006 52.7378 27.8513 52.7219 27.802 52.7064L27.7945 52.7039C27.7014 52.6751 27.6083 52.6457 27.5161 52.6153ZM26.4844 52.2637C25.5437 52.6143 24.8779 53.0974 24.8102 53.8424C24.8067 53.8842 24.8042 53.9255 24.8027 53.9664C25.2718 53.2448 26.1129 52.7567 27.0296 52.4544C26.8484 52.3877 26.6651 52.3294 26.4844 52.2637ZM28.6853 52.9734C27.2512 53.4245 25.7992 54.1825 25.4884 55.43C25.5452 55.4763 25.605 55.5211 25.6667 55.5635C26.204 54.2099 27.7566 53.3962 29.2361 53.1277C29.1674 53.1088 28.7122 52.9734 28.6853 52.9734ZM31.0188 55.2592C30.6647 55.424 30.1543 55.7417 29.7107 56.0884C30.0373 56.0346 30.3665 55.9619 30.6896 55.8682C31.6517 55.5904 32.6825 55.1372 33.0455 54.4355C33.1137 54.304 33.17 54.1402 33.2173 53.9529L33.2113 53.9519C32.3942 53.8384 31.6074 53.6915 30.7972 53.5132L30.7763 53.5087C30.615 53.4719 30.4541 53.435 30.2933 53.3967C30.0891 53.3479 29.8854 53.2971 29.6818 53.2448L29.626 53.2303C28.1889 53.6317 26.576 54.5829 26.1009 55.8065C26.199 55.8518 26.3001 55.8936 26.4032 55.931C26.8344 54.4997 28.7202 53.7995 30.4427 53.6357C28.6475 54.1148 27.2049 55.0391 26.8718 56.0704C26.9679 56.0923 27.069 56.1118 27.1745 56.1287C27.8045 55.169 29.2052 54.5924 30.1309 54.3399C29.3033 54.7418 28.2447 55.5142 27.7173 56.1904C27.8408 56.1989 27.9688 56.2049 28.0997 56.2074C28.4468 55.8359 29.0449 55.3648 30.0443 54.9713C29.6609 55.2238 29.0947 55.7173 28.6744 56.1984C28.76 56.1944 28.8462 56.189 28.9333 56.182C29.3322 55.8692 29.9885 55.4982 31.0188 55.2592ZM81.4843 52.6153C82.6416 53.074 83.7764 53.7851 84.0374 54.7741C83.997 54.8593 83.9502 54.94 83.8974 55.0172C83.4931 53.8847 82.3797 53.1731 80.9888 52.7722L80.9963 52.7697L81.0511 52.7527C81.1004 52.7378 81.1497 52.7219 81.199 52.7064L81.2064 52.7039C81.2991 52.6751 81.3922 52.6457 81.4843 52.6153ZM82.5166 52.2637C83.4572 52.6143 84.123 53.0974 84.1907 53.8424C84.1942 53.8842 84.1967 53.9255 84.1982 53.9664C83.7291 53.2448 82.8881 52.7567 81.9713 52.4544C82.1521 52.3877 82.3358 52.3294 82.5166 52.2637ZM80.3151 52.9734C81.7492 53.4245 83.2013 54.1825 83.512 55.43C83.4552 55.4763 83.3955 55.5211 83.3337 55.5635C82.7964 54.2099 81.2438 53.3962 79.7644 53.1277C79.8336 53.1088 80.2887 52.9734 80.3151 52.9734ZM77.9821 55.2592C78.3362 55.424 78.8466 55.7417 79.2903 56.0884C78.9636 56.0346 78.6345 55.9619 78.3113 55.8682C77.3492 55.5904 76.3184 55.1372 75.9554 54.4355C75.8872 54.304 75.8309 54.1402 75.7836 53.9529L75.7896 53.9519C76.6068 53.8384 77.3935 53.6915 78.2037 53.5132L78.2247 53.5087C78.386 53.4719 78.5468 53.435 78.7077 53.3967C78.9118 53.3479 79.1155 53.2971 79.3192 53.2448L79.3749 53.2303C80.8121 53.6317 82.425 54.5829 82.9 55.8065C82.8019 55.8518 82.7008 55.8936 82.5978 55.931C82.1665 54.4997 80.2807 53.7995 78.5583 53.6357C80.3534 54.1148 81.796 55.0391 82.1297 56.0704C82.0336 56.0923 81.9325 56.1118 81.8269 56.1287C81.197 55.169 79.7962 54.5924 78.8705 54.3399C79.6981 54.7418 80.7568 55.5142 81.2841 56.1904C81.1601 56.1989 81.0327 56.2049 80.9017 56.2074C80.5546 55.8359 79.9566 55.3648 78.9572 54.9713C79.3406 55.2238 79.9068 55.7173 80.327 56.1984C80.2414 56.1944 80.1553 56.189 80.0681 56.182C79.6682 55.8692 79.0124 55.4982 77.9821 55.2592ZM35.7096 54.0729C33.8507 55.7014 30.847 56.9907 28.4249 57.0565C30.7265 57.6451 34.5907 55.7273 37.0685 54.3722C33.8527 56.6835 28.3139 58.6989 25.1837 57.2128C27.1053 58.2044 30.1623 58.5863 36.5626 55.5007C33.4842 57.6217 28.2785 59.415 24.8889 57.8343C26.9903 58.8976 29.8476 59.5475 36.3121 56.5136C33.3064 58.5848 28.523 60.0544 24.9626 58.6804C27.1417 59.5853 30.8166 59.8313 36.3111 57.6516C34.2043 58.7487 31.5939 59.793 29.0504 59.9782C27.5744 60.0853 26.4246 59.9523 25.5313 59.6959C27.6351 60.418 30.9068 60.5679 35.4661 58.9668C33.5504 59.8771 31.327 60.664 29.1524 60.8218C27.8782 60.9145 26.8474 60.8273 26.0143 60.6371C28.4005 61.4289 31.5148 61.7207 37.6551 58.8388C35.376 60.1984 32.8299 61.4668 29.5807 61.7028C28.154 61.8064 27.0326 61.6854 26.1522 61.4458C28.3308 62.278 32.1233 62.8074 39.152 59.0868C36.8928 60.4981 33.5898 62.3084 30.3326 62.5454C29.3835 62.6142 28.5693 62.5838 27.8712 62.4852C28.0818 62.5395 28.3004 62.5853 28.527 62.6216C29.7077 62.8133 31.1054 62.7631 32.7238 62.4463C34.4249 62.1132 36.338 61.1241 38.554 59.9787C40.9611 58.7347 43.7188 57.309 46.987 56.3065C49.6341 55.4947 52.0667 55.0899 54.4997 55.0919C56.9328 55.0899 59.3653 55.4947 62.0125 56.3065C65.2806 57.309 68.0383 58.7347 70.4455 59.9787C72.6614 61.1241 74.5746 62.1132 76.2756 62.4463C77.8945 62.7635 79.2918 62.8133 80.4725 62.6216C80.699 62.5848 80.9176 62.539 81.1283 62.4852C80.4301 62.5838 79.616 62.6142 78.6668 62.5454C75.4092 62.3084 72.1067 60.4981 69.8474 59.0868C76.8762 62.8074 80.6686 62.278 82.8472 61.4458C81.9673 61.6854 80.8454 61.8064 79.4188 61.7028C76.1696 61.4663 73.6235 60.1979 71.3443 58.8388C77.4852 61.7207 80.5994 61.4289 82.9852 60.6371C82.1521 60.8273 81.1208 60.9145 79.8465 60.8218C77.6719 60.6635 75.449 59.8771 73.5329 58.9668C78.0922 60.5679 81.3638 60.4175 83.4677 59.6959C82.5744 59.9518 81.4246 60.0853 79.9486 59.9782C77.405 59.793 74.7947 58.7487 72.6878 57.6516C78.1823 59.8313 81.8573 59.5853 84.0364 58.6804C80.4759 60.0544 75.693 58.5848 72.6868 56.5136C79.1514 59.5475 82.0087 58.8976 84.1101 57.8343C80.7204 59.415 75.5147 57.6217 72.4363 55.5007C78.8366 58.5863 81.8941 58.2044 83.8153 57.2128C80.6851 58.6989 75.1462 56.683 71.9304 54.3722C74.4078 55.7273 78.2725 57.6446 80.5735 57.0565C78.1515 56.9907 75.1477 55.7014 73.2888 54.0729C68.108 49.5337 61.3024 47.2663 54.4982 47.2708C47.6961 47.2663 40.8904 49.5337 35.7096 54.0729Z" fill="white"/>
<path fill-rule="evenodd" clip-rule="evenodd" d="M36.5933 61.8088C39.0597 62.8511 41.8159 63.619 44.4302 62.9796C42.9756 62.5657 41.05 61.249 39.9306 60.0981L39.6781 60.2266C39.9022 60.4457 40.3937 60.9094 40.7557 61.1718C40.2359 61.006 39.601 60.632 39.2907 60.4248L39.1503 60.4975C39.4391 60.7779 40.0043 61.3073 40.4266 61.6131C39.8196 61.4198 39.0846 60.994 38.6897 60.7356L38.498 60.8352C38.8361 61.1664 39.6044 61.8929 40.1686 62.3023C39.3619 62.0453 38.376 61.4627 37.9034 61.1454L37.5474 61.3297C37.9029 61.5892 38.7395 62.1778 39.335 62.489C38.4621 62.3456 37.3307 61.8621 36.9159 61.6499C36.8094 61.7032 36.7013 61.756 36.5933 61.8088Z" fill="white"/>
<path fill-rule="evenodd" clip-rule="evenodd" d="M72.4068 61.8088C69.9403 62.8511 67.1841 63.619 64.5698 62.9796C66.0244 62.5657 67.95 61.249 69.0694 60.0981L69.3219 60.2266C69.0978 60.4457 68.6063 60.9094 68.2443 61.1718C68.7642 61.006 69.3991 60.632 69.7093 60.4248L69.8497 60.4975C69.5609 60.7779 68.9957 61.3073 68.5734 61.6131C69.1805 61.4198 69.9154 60.994 70.3103 60.7356L70.5021 60.8352C70.1639 61.1664 69.3956 61.8929 68.8314 62.3023C69.6376 62.0453 70.624 61.4627 71.0966 61.1454L71.4527 61.3297C71.0971 61.5892 70.2605 62.1778 69.665 62.489C70.5379 62.3456 71.6693 61.8621 72.0841 61.6499C72.1911 61.7032 72.2987 61.756 72.4068 61.8088Z" fill="white"/>
<path fill-rule="evenodd" clip-rule="evenodd" d="M49.6373 10.0691C49.9858 9.80066 49.71 9.25734 49.2962 9.37387C49.5551 9.44608 49.8056 9.56062 49.6373 10.0691ZM52.5653 8.99091C52.867 9.00336 53.3755 9.16919 53.6802 9.43164C53.4292 9.00535 53.1703 8.9675 52.5653 8.99091ZM51.4782 7.94162C51.424 7.92967 51.3722 7.90776 51.3249 7.87738C51.1137 7.74093 51.046 7.46852 51.0958 7.23347C51.156 6.94961 51.3677 6.74443 51.6391 6.65579C51.7252 6.6274 51.8124 6.60848 51.9 6.60001C51.7416 6.58358 51.5823 6.60499 51.4269 6.65579C51.1555 6.74443 50.9439 6.9501 50.8837 7.23347C50.8339 7.46852 50.9016 7.74093 51.1127 7.87738C51.17 7.91423 51.2337 7.93814 51.301 7.9476C51.3607 7.95656 51.4205 7.95358 51.4782 7.94162ZM51.6789 5.85998C52.4976 5.92721 53.0174 6.62591 53.2246 7.36992C53.2818 6.50888 52.517 5.78777 51.6789 5.85998ZM55.8727 4.56269C56.2044 3.31371 55.922 1.95566 54.3933 0.693724C55.1193 1.55527 55.6985 2.43822 55.7702 3.47406C55.8165 4.14387 55.5038 5.58807 55.2568 6.31715C55.5142 5.71755 55.7562 5.00242 55.8727 4.56269ZM57.5031 8.10098C57.886 8.15427 58.3237 7.90627 58.487 7.50288C58.6051 7.21205 58.5453 6.86644 58.4024 6.59603C58.2196 6.24942 57.9039 6.0049 57.5285 5.89783C57.3915 5.85899 57.2491 5.84853 57.1077 5.85998C57.1779 5.86596 57.2476 5.87841 57.3158 5.89783C57.6913 6.0044 58.0075 6.24892 58.1898 6.59603C58.3327 6.86694 58.3924 7.21255 58.2744 7.50288C58.141 7.83306 57.8238 8.05865 57.5031 8.10098ZM55.3658 10.3639C55.5575 9.79169 55.936 9.32308 56.4813 9.01979C55.936 9.03374 55.319 9.82407 55.3658 10.3639ZM56.8094 12.8414C56.0834 12.7971 55.5814 12.3151 55.3967 11.6194C55.2996 12.5197 56.177 13.0337 56.8094 12.8414ZM61.9743 13.448C61.9369 13.446 61.8996 13.443 61.8622 13.4386C60.71 13.3066 59.9804 12.3982 59.8057 11.3788C59.5771 12.5088 60.8887 13.5088 61.9743 13.448ZM62.3806 11.8903C62.3273 11.8783 62.2765 11.8569 62.2302 11.827C62.0231 11.6926 61.9559 11.4256 62.0052 11.1941C62.0644 10.9157 62.2716 10.7145 62.538 10.6273C62.6376 10.595 62.7396 10.5731 62.8417 10.5641C62.6714 10.5482 62.4946 10.5721 62.3258 10.6273C62.0594 10.7145 61.8523 10.9157 61.793 11.1941C61.7437 11.4256 61.8109 11.6926 62.0181 11.827C62.0749 11.8634 62.1381 11.8873 62.2043 11.8967C62.2636 11.9052 62.3228 11.9027 62.3806 11.8903ZM46.5962 12.0322C46.9667 12.086 47.3919 11.8454 47.5508 11.455C47.6648 11.1741 47.6066 10.8395 47.4686 10.578C47.2919 10.2424 46.9861 10.0053 46.6226 9.90225C46.4827 9.86241 46.3427 9.85146 46.2058 9.8639C46.2735 9.86988 46.3417 9.88283 46.41 9.90225C46.7735 10.0053 47.0792 10.2424 47.256 10.578C47.3939 10.8395 47.4522 11.1741 47.3382 11.455C47.2092 11.7727 46.9044 11.9904 46.5962 12.0322ZM46.8133 13.448C46.0111 13.4032 45.31 12.8524 45.0859 12.0571C44.9604 11.6134 45.0291 11.1049 45.3956 10.7927C45.558 10.6547 45.7482 10.5825 45.9464 10.5641C45.674 10.5397 45.4026 10.6054 45.183 10.7927C44.8165 11.1049 44.7478 11.6134 44.8728 12.0571C45.1168 12.9221 45.9244 13.4978 46.8133 13.448ZM51.9747 12.8315C50.931 12.7722 50.1043 11.947 49.6641 11.0526C49.9644 12.3091 51.0111 12.8883 51.9747 12.8315ZM64.5637 10.4595C64.5293 8.11393 66.2807 8.19461 66.2747 8.20506C64.8714 8.58006 64.7151 9.64877 64.5637 10.4595ZM59.8141 10.0691C60.1627 9.80066 59.8868 9.25734 59.4735 9.37387C59.7325 9.44608 59.9829 9.56062 59.8141 10.0691ZM56.5998 13.8011C56.8896 14.083 57.1794 14.3628 57.4677 14.6427C57.1794 14.9435 56.8896 15.2433 56.5998 15.5416C56.31 15.2587 56.0216 14.9754 55.7318 14.689C56.0216 14.3947 56.31 14.0979 56.5998 13.8011ZM58.5841 13.8494C58.8296 14.081 59.0756 14.3115 59.3211 14.5406C59.0756 14.8041 58.8296 15.0665 58.5841 15.327C58.3387 15.0944 58.0927 14.8608 57.8452 14.6263C58.0927 14.3683 58.3387 14.1094 58.5841 13.8494ZM60.32 13.8529C60.5232 14.0367 60.7249 14.2194 60.9266 14.4022C60.7249 14.6248 60.5232 14.8469 60.32 15.068C60.1184 14.8833 59.9167 14.6975 59.7135 14.5107C59.9167 14.2926 60.1184 14.0725 60.32 13.8529ZM61.9001 13.817L62.3761 14.2324L61.9001 14.7697L61.4245 14.3489L61.9001 13.817ZM52.3985 13.8016C52.1086 14.0835 51.8188 14.3633 51.5305 14.6427C51.8188 14.9435 52.1086 15.2433 52.3985 15.5416C52.6883 15.2587 52.9766 14.9749 53.2664 14.6895C52.9766 14.3952 52.6888 14.0984 52.3985 13.8016ZM50.4141 13.8494C50.1686 14.0805 49.9226 14.311 49.6771 14.5401C49.9226 14.8036 50.1686 15.0655 50.4141 15.326C50.6596 15.0939 50.9056 14.8603 51.1526 14.6258C50.9056 14.3683 50.6596 14.1094 50.4141 13.8494ZM48.6782 13.8529C48.475 14.0367 48.2733 14.2199 48.0717 14.4022C48.2733 14.6248 48.475 14.8464 48.6782 15.0675C48.8799 14.8828 49.0815 14.6975 49.2847 14.5112C49.0815 14.2926 48.8799 14.0725 48.6782 13.8529ZM47.0981 13.817L46.6241 14.2324L47.0981 14.7697L47.5737 14.3489L47.0981 13.817ZM54.4984 13.697L55.4988 14.6925L54.4984 15.6995L53.5 14.6925L54.4984 13.697ZM54.4999 7.94959L54.5492 6.07711L54.5855 4.70163L54.7752 4.25244L55.0511 3.60055L54.7757 2.94967L54.4999 2.29828L54.224 2.94967L53.9481 3.60105L54.224 4.25293L54.4137 4.70213L54.4501 6.07761L54.4999 7.94959ZM44.3658 10.4595C44.4002 8.11393 42.6489 8.19461 42.6543 8.20506C44.0372 8.64181 44.2144 9.5666 44.3658 10.4595ZM53.4536 11.0267H53.0254C52.8108 11.0267 52.6355 10.8514 52.6355 10.6368C52.6355 10.4222 52.8108 10.2469 53.0254 10.2469H53.4098C53.2266 9.68512 52.7281 9.11591 51.78 8.67966C52.4433 8.51482 52.9467 8.50735 53.3292 8.60297C53.0966 7.38834 52.5887 6.39234 51.7138 6.67869C51.1974 6.84702 51.2417 7.45956 51.5474 7.50338C51.6057 7.51185 51.6729 7.4994 51.7481 7.46006C51.5863 6.73995 52.5459 6.96604 52.2595 7.57659C51.8462 8.45755 50.6367 8.24391 50.2896 7.38735C50.0202 6.72302 50.4395 5.73449 51.4055 5.46009C51.7018 5.37593 52.0275 5.39833 52.3357 5.50441C52.9582 5.71855 53.5532 6.36296 53.7365 7.39283C53.5846 4.82115 51.1989 3.66778 54.5004 -0.000488281C57.8018 3.66778 55.4161 4.82115 55.2642 7.39283C55.4475 6.36296 56.043 5.71855 56.6655 5.50441C56.9732 5.39833 57.2994 5.37593 57.5952 5.46009C58.5612 5.73449 58.9805 6.72302 58.7111 7.38735C58.3636 8.24391 57.154 8.45755 56.7412 7.57659C56.4549 6.96604 57.4139 6.73995 57.2521 7.46006C57.3273 7.4994 57.3945 7.51135 57.4528 7.50338C57.7585 7.45906 57.8028 6.84702 57.2865 6.67869C56.4006 6.38886 55.8961 7.39034 55.6716 8.60297C56.054 8.50735 56.5574 8.51482 57.2202 8.67966C56.2726 9.11541 55.7741 9.68462 55.5904 10.2469H55.9748C56.1889 10.2469 56.3647 10.4222 56.3647 10.6368C56.3647 10.8514 56.1894 11.0267 55.9748 11.0267H55.5705C55.7901 13.0421 58.2421 12.7961 59.2091 10.5492H59.0582C58.9213 10.5492 58.8092 10.4371 58.8092 10.3002V10.2997C58.8092 10.1627 58.9213 10.0507 59.0582 10.0507H59.2121C59.0607 9.93462 58.9631 9.75185 58.9631 9.54668C58.9631 9.19658 59.2474 8.91223 59.5975 8.91223C59.9481 8.91223 60.2319 9.19609 60.2319 9.54668C60.2319 9.75235 60.1343 9.93462 59.9829 10.0507H60.1373C60.2742 10.0507 60.3863 10.1627 60.3863 10.2997V10.3002C60.3863 10.4371 60.2742 10.5492 60.1373 10.5492H59.8953C60.0133 11.1209 60.2125 11.711 60.5302 12.1691C60.8763 12.6671 61.3797 12.9356 61.8901 12.9938C62.7944 13.0974 63.4871 12.4824 63.6833 11.7862C63.8989 11.0213 63.3825 10.3988 62.6132 10.6502C62.1107 10.8141 62.1535 11.4097 62.4513 11.4525C62.5076 11.4605 62.5733 11.449 62.6465 11.4107C62.4892 10.7105 63.4224 10.9301 63.144 11.5242C62.7421 12.3813 61.5655 12.1736 61.2273 11.34C60.9649 10.6941 61.3732 9.73194 62.3129 9.46501C63.141 9.22995 63.9477 9.82506 64.4004 10.4715C64.3167 8.51681 65.0372 7.89182 66.8254 7.60846L63.2077 14.446L63.261 14.437C63.6116 14.3778 63.7829 14.5924 63.7829 14.8598C63.7829 15.0864 63.6599 15.3509 63.4089 15.4629C63.2974 15.4759 63.1853 15.4883 63.0738 15.5003C60.2264 15.7941 57.3626 15.9106 54.5004 15.9106C51.6386 15.9106 48.7748 15.7941 45.9269 15.5003C45.8154 15.4888 45.7039 15.4764 45.5918 15.4629C45.3403 15.3514 45.2173 15.0864 45.2173 14.8598C45.2173 14.5924 45.3886 14.3783 45.7392 14.4375L45.793 14.4465L42.1753 7.60846C43.9635 7.89182 44.684 8.51681 44.6004 10.4715C45.0535 9.82506 45.8597 9.22995 46.6878 9.46501C47.6275 9.73194 48.0358 10.6936 47.7734 11.34C47.4353 12.1736 46.2586 12.3813 45.8567 11.5242C45.5784 10.9306 46.5111 10.7105 46.3542 11.4107C46.4269 11.449 46.4926 11.461 46.5494 11.4525C46.8472 11.4097 46.89 10.8141 46.3876 10.6502C45.6182 10.3983 45.1013 11.0213 45.3169 11.7862C45.5131 12.4824 46.2058 13.0974 47.1101 12.9938C47.6205 12.9356 48.124 12.6667 48.47 12.1691C48.7877 11.711 48.9864 11.1209 49.1049 10.5492H48.8629C48.726 10.5492 48.6139 10.4371 48.6139 10.3002V10.2997C48.6139 10.1627 48.726 10.0507 48.8629 10.0507H49.0173C48.8659 9.93462 48.7683 9.75185 48.7683 9.54668C48.7683 9.19658 49.0522 8.91223 49.4027 8.91223C49.7528 8.91223 50.0371 9.19609 50.0371 9.54668C50.0371 9.75235 49.9395 9.93462 49.7881 10.0507H49.942C50.079 10.0507 50.191 10.1627 50.191 10.2997V10.3002C50.191 10.4371 50.079 10.5492 49.942 10.5492H49.7916C50.796 12.8843 53.2774 12.9425 53.4536 11.0267Z" fill="#21A038"/>
<path fill-rule="evenodd" clip-rule="evenodd" d="M28.8825 23.4055C29.3371 23.1376 29.8276 23.2272 30.3256 23.3333C30.3256 23.3333 29.5657 23.9708 28.8825 23.4055ZM24.6419 33.2644C26.4261 37.3022 24.6189 39.1055 20.9046 40.6553C18.2834 41.7489 16.8129 43.4993 17.7252 46.4346C16.175 43.465 17.9223 41.46 20.6298 40.2843C24.0662 38.7922 25.7812 37.1807 24.6419 33.2644ZM11.2038 34.0717C11.7167 33.9487 12.2252 33.3088 11.9563 32.8237C11.896 33.2281 11.8537 33.5568 11.2038 34.0717ZM13.4606 35.5622C13.5622 34.8989 12.0588 34.5592 12.634 33.5513C12.5279 34.5458 13.7131 34.6867 13.4606 35.5622ZM39.3153 26.5195C39.8023 26.1072 40.3476 25.6042 40.5169 25.5051C40.62 25.3836 40.1594 23.9469 40.4522 23.4757C40.8182 22.8861 41.4501 22.9528 42.0446 23.1047V25.914L40.0125 27.4403C40.2634 27.6594 40.3849 27.9732 40.4731 28.4C39.4313 27.6589 37.8832 29.3492 36.9405 30.6131C36.5003 31.2032 36.0462 31.5907 36.6089 32.2625C36.8783 32.5842 37.3429 32.7734 38.0435 32.6902C37.4753 33.2629 36.0143 33.9925 35.1195 33.6484C35.1324 32.8954 35.0637 32.7261 34.8561 32.2904C34.5777 31.7057 34.3705 31.6315 34.8028 31.0807L36.7946 29.146L34.3526 30.7231C34.1773 30.7964 34.0508 30.8691 33.9134 30.8551C33.7282 30.8362 33.4294 30.641 33.2835 30.4253C34.624 29.8536 35.8261 28.9607 36.8688 28.0041C37.683 27.2576 38.4414 26.5404 37.2712 25.5898C38.2805 25.6122 38.904 25.7855 39.3153 26.5195ZM26.6999 30.2241C27.9667 31.3123 29.9581 31.7286 31.3091 32.7669C31.8339 33.1703 33.2103 34.3765 33.6346 35.371C31.4565 34.5174 31.1129 33.9228 29.4088 32.9313C28.3562 32.3182 27.2686 31.6853 26.6999 30.2241ZM29.5697 41.0233C27.295 41.5078 24.4825 41.3206 23.4901 43.0307C24.9431 42.5576 27.0256 43.835 27.2218 45.0994C27.4379 46.4913 26.6676 48.3653 27.2756 49.814C26.6008 47.4629 29.0329 45.2488 26.8468 43.5477C26.1323 42.9914 25.3071 42.6308 24.3789 42.5935C24.6458 42.3873 25.0009 42.2728 25.3674 42.2215C27.2059 41.963 29.0528 43.0765 29.2201 44.7887C29.2928 45.5342 29.1036 46.3584 28.766 47.1631C28.395 48.0471 28.0419 48.9295 28.4468 49.8299C28.5553 50.071 30.6 52.1501 31.3136 52.8832C31.5068 52.9843 31.7264 53.0032 31.935 52.9788C32.3319 52.9325 33.8103 52.6038 34.264 52.7726C34.9283 53.0191 34.9815 53.5649 34.9238 54.0958C34.9158 54.2781 34.8899 54.4588 34.863 54.6257C33.6146 54.6257 32.3578 54.6013 31.1218 54.6013C29.2948 53.4788 27.2825 52.1641 25.701 51.1959C24.475 51.3538 23.8451 50.8922 23.1335 49.932C25.331 50.4798 25.58 48.822 25.2145 47.3842C24.728 45.4739 23.8391 45.3415 22.2875 44.4874C21.9524 44.3031 21.7532 44.0242 21.8732 43.5297C22.5624 40.6886 28.2237 41.0811 28.6031 37.9128C27.7063 40.8784 21.0969 39.8291 21.1252 44.7175C21.1337 46.2065 21.7492 48.0625 20.3195 49.1965C19.7051 49.684 18.7659 50.1432 18.0468 50.4574C18.132 52.1252 17.0972 52.4663 18.0478 54.7552C18.2699 55.29 18.7046 55.3996 19.1015 55.3533C19.4984 55.3069 20.9768 54.9783 21.4305 55.1466C22.3094 55.4733 22.1635 56.3014 22.0495 57.0046H18.6957L16.7332 55.8313C16.2786 54.9419 15.6979 53.3956 15.5057 52.4385C15.3957 51.8907 15.1572 51.4489 14.9027 51.1108C14.8917 51.1113 14.8803 51.1123 14.8693 51.1128L14.8763 51.1053C13.7141 50.5839 13.4999 49.8743 13.5642 48.6975C14.4207 49.6681 15.4141 49.5625 16.1441 49.0152C16.2178 48.9151 16.2776 48.8095 16.3189 48.698C16.7257 47.6019 15.6546 45.708 15.4903 44.4914C14.4814 45.443 12.9711 45.585 11.9812 45.1706C10.8891 44.714 10.3767 43.5825 10.6655 42.1966C11.2208 39.5303 14.8688 37.6533 16.6217 35.5861C17.3273 34.754 17.6056 33.8974 16.4095 33.3197C16.552 33.254 17.5459 33.2186 17.7735 33.618C17.9771 33.0448 19.0453 30.6873 16.9668 29.5006C16.0595 28.9826 14.7956 28.9632 13.8291 29.4139C11.3089 30.5897 12.4697 33.4935 14.7025 32.8949C14.6542 33.0314 14.0656 33.6145 13.5049 33.5473C14.1169 34.245 14.3943 35.6045 13.3401 36.4945C13.6304 35.1245 11.768 35.6006 11.9174 34.0592C11.6336 34.4332 10.6362 34.3147 10.5142 34.1842C11.0171 34.0199 11.3473 33.6917 11.5225 33.3172C11.8109 32.7012 11.5888 32.4323 11.5504 31.8382C11.4653 30.5249 12.1963 29.399 13.3705 28.7984C14.4391 28.2516 15.7841 28.1908 16.9055 28.5728C19.8206 29.5663 19.5895 32.7515 18.2386 34.7863C17.1709 36.3934 15.4136 37.7619 14.0293 39.1244C14.6672 39.1697 15.0581 39.7056 15.0874 39.967C13.5607 39.2285 12.1933 40.7638 11.8268 41.9481C11.3263 43.5661 13.0622 45.1701 14.8873 43.472C15.2777 43.1089 15.5321 42.329 15.9629 41.7892C16.6077 40.982 17.4836 40.2698 18.372 39.8405C19.0612 39.5074 19.7688 39.3127 20.4236 39.1115C23.3765 38.2011 23.8033 33.6484 22.8621 31.7779C22.6908 31.4378 22.4732 31.1201 22.2696 30.7939C22.1834 31.7142 21.6884 32.5159 20.2125 33.0782C22.3373 30.7769 18.3566 25.7541 24.3057 23.7123C21.8134 24.2452 21.0042 25.3741 19.9555 27.3507C19.2424 24.4767 21.4275 22.551 24.7026 22.6316C23.0334 22.422 21.7517 22.7716 20.8842 23.2208C22.0335 21.6062 24.3336 21.2995 25.3768 21.5953C25.1717 21.4593 25.0512 21.306 24.8062 20.922C25.8773 21.3055 28.8217 21.0156 29.1225 22.1974C29.8441 22.0823 30.6503 22.1162 31.076 22.7756C31.3758 23.2392 32.9185 23.2282 33.7048 23.7815C34.8396 24.5798 32.8059 25.9538 31.9778 25.9951C32.5121 25.4468 32.6033 24.9971 31.7348 24.9742C30.6538 24.9458 30.0164 25.5315 30.2031 25.9747C30.3674 26.1988 31.6298 26.8537 32.0321 26.2914C32.1676 26.5086 32.2891 27.1679 31.7692 27.3786C31.6691 27.8507 32.0794 28.2725 31.1418 28.7451C31.0347 27.3452 30.0348 27.6829 29.4313 27.5992C28.6674 27.4941 28.0803 26.9015 28.9318 26.3029C28.0713 26.0434 27.1013 27.4707 28.6679 28.4607C32.2587 30.7316 35.5746 31.0772 34.5732 36.0224C34.3217 34.9298 33.9911 33.0015 32.6581 32.1788C33.3647 33.134 33.6171 34.0812 33.6555 34.6867C32.9075 33.3919 31.6278 32.3835 30.5636 31.8088C28.5772 30.7361 25.9455 30.0892 25.9455 27.4099V26.8686L24.1852 28.4373C23.7281 26.8009 24.358 25.0554 25.7747 24.273C25.4819 24.3502 22.6346 25.6465 23.9427 29.2969L25.471 28.0105C25.7125 30.2615 26.9873 32.1116 29.0941 33.3371C29.5577 33.6066 30.0149 33.8725 30.4147 34.1987C29.8969 34.0508 29.3775 33.9094 28.9054 33.7799C27.1361 33.2943 25.5332 32.5374 24.3939 30.9532C25.6562 33.8506 29.0423 34.2948 31.6432 35.0209C32.5445 35.2729 32.9902 35.4706 33.5868 35.8665C34.1161 36.2181 35.4297 37.2171 35.97 37.11C36.3136 37.0418 36.6228 36.8122 36.7393 36.3316C37.0839 36.8914 37.1168 37.4666 36.7812 37.9486C37.5286 38.4392 38.6132 38.972 39.0101 39.2235C39.2038 39.2758 40.5951 38.2863 41.2997 38.3849C42.203 38.5119 42.3838 39.1682 42.452 39.8087L39.2013 40.9571L36.1816 39.0472C35.6817 40.105 34.9044 40.3445 33.5897 40.3724C35.9446 38.4611 32.0107 36.7614 30.2091 37.0816C32.6491 37.1334 34.4647 39.981 29.5697 41.0233Z" fill="#21A038"/>
<path fill-rule="evenodd" clip-rule="evenodd" d="M80.1622 23.4055C79.7076 23.1376 79.2171 23.2272 78.7196 23.3333C78.7196 23.3333 79.479 23.9708 80.1622 23.4055ZM84.4029 33.2644C82.6187 37.3022 84.4258 39.1055 88.1401 40.6553C90.7614 41.7489 92.2318 43.4993 91.3196 46.4346C92.8697 43.465 91.1224 41.46 88.415 40.2843C84.9785 38.7922 83.264 37.1807 84.4029 33.2644ZM97.8414 34.0717C97.3285 33.9487 96.8201 33.3088 97.089 32.8237C97.1487 33.2281 97.1916 33.5568 97.8414 34.0717ZM95.5841 35.5622C95.4825 34.8989 96.9859 34.5592 96.4107 33.5513C96.5168 34.5458 95.3317 34.6867 95.5841 35.5622ZM69.7299 26.5195C69.2429 26.1072 68.6977 25.6042 68.5283 25.5051C68.4253 25.3836 68.8859 23.9469 68.5931 23.4757C68.2271 22.8861 67.5952 22.9528 67.0006 23.1047V25.914L69.0328 27.4403C68.7818 27.6594 68.6603 27.9732 68.5722 28.4C69.6139 27.6589 71.1621 29.3492 72.1047 30.6131C72.5444 31.2032 72.999 31.5907 72.4364 32.2625C72.167 32.5842 71.7024 32.7734 71.0017 32.6902C71.5699 33.2629 73.0309 33.9925 73.9258 33.6484C73.9128 32.8954 73.9815 32.7261 74.1892 32.2904C74.4675 31.7057 74.6747 31.6315 74.243 31.0807L72.2506 29.146L74.6926 30.7231C74.8679 30.7964 74.9944 30.8691 75.1318 30.8551C75.3176 30.8362 75.6158 30.641 75.7617 30.4253C74.4212 29.8536 73.2191 28.9607 72.1764 28.0041C71.3622 27.2576 70.6038 26.5404 71.7741 25.5898C70.7647 25.6122 70.1412 25.7855 69.7299 26.5195ZM82.3453 30.2241C81.0785 31.3123 79.0871 31.7286 77.7362 32.7669C77.2113 33.1703 75.8349 34.3765 75.4107 35.371C77.5888 34.5174 77.9324 33.9228 79.6364 32.9313C80.6891 32.3182 81.7761 31.6853 82.3453 30.2241ZM79.4755 41.0233C81.7502 41.5078 84.5627 41.3206 85.5552 43.0307C84.1021 42.5576 82.0196 43.835 81.8234 45.0994C81.6073 46.4913 82.3777 48.3653 81.7697 49.814C82.4444 47.4629 80.0123 45.2488 82.1984 43.5477C82.913 42.9914 83.7381 42.6308 84.6663 42.5935C84.3994 42.3873 84.0449 42.2728 83.6779 42.2215C81.8394 41.963 79.9924 43.0765 79.8251 44.7887C79.7524 45.5342 79.9416 46.3584 80.2793 47.1631C80.6502 48.0471 81.0033 48.9295 80.5985 49.8299C80.4899 50.071 78.4453 52.1501 77.7317 52.8832C77.5385 52.9843 77.3189 53.0032 77.1102 52.9788C76.7133 52.9325 75.2349 52.6038 74.7813 52.7726C74.117 53.0191 74.0637 53.5649 74.1215 54.0958C74.1294 54.2781 74.1553 54.4588 74.1822 54.6257C75.4306 54.6257 76.6875 54.6013 77.9234 54.6013C79.7504 53.4788 81.7627 52.1641 83.3442 51.1959C84.5702 51.3538 85.2001 50.8922 85.9117 49.932C83.7142 50.4798 83.4652 48.822 83.8307 47.3842C84.3172 45.4739 85.2061 45.3415 86.7577 44.4874C87.0929 44.3031 87.2921 44.0242 87.1721 43.5297C86.4829 40.6886 80.8215 41.0811 80.4421 37.9128C81.3389 40.8784 87.9484 39.8291 87.92 44.7175C87.9115 46.2065 87.296 48.0625 88.7257 49.1965C89.3402 49.684 90.2793 50.1432 90.9984 50.4574C90.9132 52.1252 91.948 52.4663 90.9974 54.7552C90.7753 55.29 90.3406 55.3996 89.9437 55.3533C89.5468 55.3069 88.0684 54.9783 87.6147 55.1466C86.7353 55.4733 86.8817 56.3014 86.9958 57.0046H90.3496L92.312 55.8313C92.7667 54.9419 93.3473 53.3956 93.5395 52.4385C93.6495 51.8907 93.8881 51.4489 94.1425 51.1108C94.1535 51.1113 94.1649 51.1123 94.1759 51.1128L94.1689 51.1053C95.3312 50.5839 95.5453 49.8743 95.4811 48.6975C94.6246 49.6681 93.6311 49.5625 92.9011 49.0152C92.8274 48.9151 92.7677 48.8095 92.7263 48.698C92.32 47.6019 93.3906 45.708 93.5549 44.4914C94.5638 45.443 96.0741 45.585 97.0641 45.1706C98.1561 44.714 98.6685 43.5825 98.3797 42.1966C97.8245 39.5303 94.1764 37.6533 92.4236 35.5861C91.718 34.754 91.4396 33.8974 92.6357 33.3197C92.4933 33.254 91.4993 33.2186 91.2718 33.618C91.0681 33.0448 90 30.6873 92.0785 29.5006C92.9863 28.9826 94.2496 28.9632 95.2161 29.4139C97.7363 30.5897 96.5756 33.4935 94.3427 32.8949C94.391 33.0314 94.9796 33.6145 95.5403 33.5473C94.9283 34.245 94.651 35.6045 95.7051 36.4945C95.4148 35.1245 97.2772 35.6006 97.1278 34.0592C97.4117 34.4332 98.4091 34.3147 98.5311 34.1842C98.0281 34.0199 97.698 33.6917 97.5232 33.3172C97.2349 32.7012 97.457 32.4323 97.4953 31.8382C97.5805 30.5249 96.8495 29.399 95.6753 28.7984C94.6066 28.2516 93.2616 28.1908 92.1402 28.5728C89.2252 29.5663 89.4562 32.7515 90.8072 34.7863C91.8748 36.3934 93.6321 37.7619 95.0165 39.1244C94.3786 39.1697 93.9877 39.7056 93.9583 39.967C95.485 39.2285 96.8524 40.7638 97.2189 41.9481C97.7194 43.5661 95.9835 45.1701 94.1585 43.472C93.7681 43.1089 93.5136 42.329 93.0829 41.7892C92.438 40.982 91.5621 40.2698 90.6737 39.8405C89.9845 39.5074 89.2769 39.3127 88.6221 39.1115C85.6697 38.2011 85.2424 33.6484 86.1836 31.7779C86.3549 31.4378 86.5725 31.1201 86.7762 30.7939C86.8623 31.7142 87.3573 32.5159 88.8333 33.0782C86.7085 30.7769 90.6892 25.7541 84.74 23.7123C87.2323 24.2452 88.0415 25.3741 89.0902 27.3507C89.8033 24.4767 87.6182 22.551 84.3431 22.6316C86.0123 22.422 87.2941 22.7716 88.1615 23.2208C87.0122 21.6062 84.7121 21.2995 83.6689 21.5953C83.874 21.4593 83.9946 21.306 84.2396 20.922C83.1684 21.3055 80.224 21.0156 79.9232 22.1974C79.2017 22.0823 78.3955 22.1162 77.9697 22.7756C77.6699 23.2392 76.1272 23.2282 75.341 23.7815C74.2061 24.5798 76.2398 25.9538 77.0679 25.9951C76.5336 25.4468 76.4425 24.9971 77.3109 24.9742C78.392 24.9458 79.0294 25.5315 78.8426 25.9747C78.6783 26.1988 77.416 26.8537 77.0136 26.2914C76.8782 26.5086 76.7567 27.1679 77.2765 27.3786C77.3766 27.8507 76.9663 28.2725 77.904 28.7451C78.011 27.3452 79.011 27.6829 79.6145 27.5992C80.3784 27.4941 80.9654 26.9015 80.1139 26.3029C80.9744 26.0434 81.9444 27.4707 80.3779 28.4607C76.7875 30.7316 73.4711 31.0772 74.4725 36.0224C74.724 34.9298 75.0546 33.0015 76.3877 32.1788C75.6811 33.134 75.4286 34.0812 75.3903 34.6867C76.1382 33.3919 77.418 32.3835 78.4821 31.8088C80.4685 30.7361 83.1002 30.0892 83.1002 27.4099V26.8686L84.8605 28.4373C85.3176 26.8009 84.6877 25.0554 83.271 24.273C83.5638 24.3502 86.4112 25.6465 85.103 29.2969L83.5748 28.0105C83.3333 30.2615 82.0585 32.1116 79.9516 33.3371C79.488 33.6066 79.0309 33.8725 78.631 34.1987C79.1489 34.0508 79.6683 33.9094 80.1403 33.7799C81.9096 33.2943 83.5125 32.5374 84.6519 30.9532C83.3895 33.8506 80.0034 34.2948 77.4025 35.0209C76.5012 35.2729 76.0555 35.4706 75.459 35.8665C74.9296 36.2181 73.616 37.2171 73.0757 37.11C72.7316 37.0418 72.4229 36.8122 72.3059 36.3316C71.9613 36.8914 71.9284 37.4666 72.2641 37.9486C71.5166 38.4392 70.4321 38.972 70.0352 39.2235C69.8415 39.2758 68.4502 38.2863 67.7455 38.3849C66.8422 38.5119 66.6615 39.1682 66.5933 39.8087L69.844 40.9571L72.8636 39.0472C73.3636 40.105 74.1409 40.3445 75.4555 40.3724C73.1006 38.4611 77.0345 36.7614 78.8362 37.0816C76.3961 37.1334 74.5806 39.981 79.4755 41.0233Z" fill="#21A038"/>
<path d="M21.0948 82.1486C21.0948 82.6089 20.9415 82.9873 20.645 83.2737C20.3383 83.5601 19.9294 83.7136 19.4081 83.7238H17.9871V80.4507H18.8663C19.2445 80.4405 19.6125 80.4916 19.9499 80.5939C20.2872 80.6962 20.5632 80.8701 20.7779 81.1156C20.9926 81.3713 21.0948 81.7088 21.0948 82.1486ZM17.9871 77.3106H19.04C19.9805 77.3209 20.4814 77.7811 20.5326 78.6812C20.5223 79.1722 20.3588 79.5404 20.0419 79.7961C19.7147 80.0518 19.2956 80.1746 18.7947 80.1643H17.9871V77.3106ZM16.6377 77.0856C16.8217 77.0856 16.9853 77.1265 17.1182 77.2083C17.2511 77.3004 17.3124 77.4436 17.3124 77.6482V83.3862C17.3124 83.5908 17.2511 83.734 17.1182 83.8158C16.9853 83.9079 16.8217 83.9488 16.6377 83.959V84.0204H19.1934C19.4796 84.0204 19.7556 83.9999 20.0214 83.9693C20.277 83.9386 20.5428 83.8568 20.7984 83.7238C20.9108 83.6726 21.0028 83.6113 21.0948 83.5397C21.5446 83.1817 21.7695 82.6907 21.7695 82.0668C21.7695 81.6679 21.6571 81.3304 21.4322 81.0747C21.197 80.8189 20.921 80.6348 20.5837 80.5019C20.2463 80.3791 19.909 80.3178 19.5614 80.3075C20.1748 80.2052 20.6041 80.0314 20.8392 79.7757C21.0744 79.5302 21.197 79.1415 21.197 78.6199C21.1766 78.0778 20.9619 77.6686 20.5632 77.4027C20.1645 77.147 19.725 77.014 19.2445 77.014H16.6377V77.0856Z" fill="#21A038"/>
<path d="M22.7532 77.6584V81.9543C22.8043 82.7726 23.0394 83.3351 23.4688 83.6317C23.7346 83.8261 24.0311 83.959 24.348 84.0204C24.6649 84.0818 24.9818 84.1125 25.2987 84.1125C26.6379 84.0613 27.333 83.376 27.4046 82.0361V77.6584C27.4046 77.4538 27.4761 77.3106 27.609 77.2186C27.7419 77.1368 27.8953 77.0958 28.0793 77.0856V77.0242H26.4436V77.0856C26.6276 77.0958 26.7912 77.1368 26.9241 77.2186C27.057 77.3106 27.1183 77.4538 27.1183 77.6584V81.627C27.1183 82.3123 26.965 82.8441 26.6685 83.2226C26.3721 83.6113 25.9529 83.8056 25.4316 83.8158C24.7262 83.8158 24.2151 83.6317 23.9084 83.2635C23.5915 82.9055 23.4381 82.3736 23.4279 81.6883V77.6379C23.4279 77.4538 23.4995 77.3106 23.6426 77.2186C23.7755 77.1265 23.9288 77.0856 24.1026 77.0856V77.0242H22.0785V77.0856C22.2625 77.0958 22.4261 77.1368 22.559 77.2186C22.6919 77.3106 22.7532 77.4538 22.7532 77.6584Z" fill="#21A038"/>
<path d="M28.5538 83.6317C28.8298 83.8261 29.157 83.9488 29.525 84.0102C29.893 84.0818 30.2303 84.1125 30.5268 84.1022C31.0891 84.1125 31.5695 83.9693 31.9784 83.6829C32.3873 83.4067 32.6122 82.9464 32.6531 82.3225C32.6531 81.719 32.4487 81.2383 32.05 80.8803C31.6411 80.5326 31.1811 80.2359 30.6699 79.9905C30.2712 79.7859 29.9339 79.5711 29.6374 79.3461C29.341 79.121 29.1774 78.8449 29.1467 78.5176C29.1365 78.1187 29.2694 77.7914 29.5556 77.5561C29.8317 77.3209 30.1895 77.2083 30.6188 77.2186C30.9971 77.2288 31.314 77.3515 31.59 77.5868C31.866 77.822 32.05 78.2414 32.1522 78.8449L32.4385 78.8347L32.2545 77.4334C31.958 77.1777 31.5798 77.014 31.1197 76.9629C30.6597 76.9117 30.2303 76.922 29.8521 77.014C29.1876 77.1879 28.7685 77.5459 28.5743 78.088C28.38 78.6301 28.5129 79.162 28.9627 79.6734C29.2899 79.9802 29.709 80.2666 30.2099 80.5223C30.721 80.778 31.1606 81.0747 31.5389 81.4122C31.9171 81.7497 32.0602 82.1793 31.9682 82.7112C31.8864 83.0589 31.7024 83.3249 31.4162 83.5192C31.13 83.7136 30.813 83.8056 30.4552 83.8158C30.0361 83.8261 29.6579 83.6829 29.3205 83.4067C28.973 83.1305 28.7481 82.6907 28.6356 82.0873H28.3494L28.5538 83.6317Z" fill="#21A038"/>
<path d="M34.9842 77.0856H34.9945V77.014H32.9601V77.0856C33.1544 77.0856 33.3179 77.1265 33.4508 77.2083C33.5837 77.3004 33.6451 77.4436 33.6451 77.6482V83.3862C33.6451 83.5908 33.5837 83.734 33.4508 83.8158C33.3179 83.9079 33.1544 83.9488 32.9601 83.959V84.0204H34.9945V83.959H34.9842C34.8105 83.9488 34.6469 83.9079 34.514 83.8158C34.3811 83.734 34.3095 83.5908 34.3095 83.3965V77.6379C34.3095 77.4436 34.3811 77.3004 34.514 77.2083C34.6469 77.1265 34.8105 77.0856 34.9842 77.0856Z" fill="#21A038"/>
<path d="M35.9811 77.6584V83.3862C35.9811 83.5908 35.9198 83.734 35.7869 83.8158C35.654 83.9079 35.4904 83.9488 35.2962 83.959V84.0204H36.9421V83.959C36.758 83.9488 36.6047 83.9079 36.4718 83.8158C36.3389 83.734 36.2674 83.5908 36.2674 83.3862V77.8732L40.6427 84.0204H40.9289V77.6482C40.9289 77.4538 41.0005 77.3106 41.1334 77.2186C41.2663 77.1368 41.4196 77.0958 41.6036 77.0856V77.0242H39.968V77.0856C40.152 77.0958 40.3156 77.1368 40.4485 77.2186C40.5814 77.3106 40.6427 77.4538 40.6427 77.6584V82.8544L36.4923 77.0242H35.2962V77.0856C35.4904 77.0958 35.654 77.1368 35.7869 77.2186C35.9198 77.3106 35.9811 77.4538 35.9811 77.6584Z" fill="#21A038"/>
<path d="M43.2644 77.3106H45.5543C45.7486 77.3106 45.9121 77.372 46.045 77.505C46.1779 77.6379 46.2801 77.8016 46.3721 77.9755C46.4539 78.1596 46.5153 78.3335 46.5664 78.4971L46.6277 78.4869C46.5664 78.2414 46.4948 77.9755 46.4233 77.6789C46.3517 77.3822 46.3006 77.147 46.2495 76.9629C46.0757 77.0038 45.8917 77.0242 45.6974 77.014H41.915V77.0856C42.099 77.0856 42.2626 77.1265 42.3955 77.2083C42.5284 77.3004 42.5897 77.4436 42.5897 77.6482V83.3862C42.5897 83.5908 42.5284 83.734 42.3955 83.8158C42.2626 83.9079 42.099 83.9488 41.915 83.959V84.0204H45.8508C46.0348 84.0204 46.2086 84.0409 46.3619 84.0715C46.4233 83.8363 46.4846 83.6113 46.5357 83.3862L46.781 82.4043L46.7197 82.3941C46.6073 82.8135 46.4437 83.1305 46.2086 83.3658C45.9735 83.601 45.6361 83.7238 45.1863 83.7238H43.2644V80.6655H44.7672C44.9205 80.6655 45.033 80.7269 45.1045 80.8394C45.1761 80.9519 45.2272 81.0849 45.2579 81.2383C45.2885 81.3917 45.2988 81.5247 45.2988 81.6372H45.3601V79.3972H45.2988C45.2988 79.5199 45.2885 79.6529 45.2579 79.7961C45.2272 79.9495 45.1761 80.0825 45.1045 80.195C45.0227 80.3075 44.9001 80.3689 44.7467 80.3689H43.2644V77.3106Z" fill="#21A038"/>
<path d="M47.3521 83.6317C47.6281 83.8261 47.9552 83.9488 48.3232 84.0102C48.6913 84.0818 49.0286 84.1125 49.3251 84.1022C49.8873 84.1125 50.3678 83.9693 50.7767 83.6829C51.1856 83.4067 51.4105 82.9464 51.4514 82.3225C51.4514 81.719 51.247 81.2383 50.8483 80.8803C50.4394 80.5326 49.9793 80.2359 49.4682 79.9905C49.0695 79.7859 48.7322 79.5711 48.4357 79.3461C48.1392 79.121 47.9757 78.8449 47.945 78.5176C47.9348 78.1187 48.0677 77.7914 48.3539 77.5561C48.6299 77.3209 48.9877 77.2083 49.4171 77.2186C49.7953 77.2288 50.1122 77.3515 50.3882 77.5868C50.6643 77.822 50.8483 78.2414 50.9505 78.8449L51.2367 78.8347L51.0527 77.4334C50.7563 77.1777 50.378 77.014 49.918 76.9629C49.458 76.9117 49.0286 76.922 48.6504 77.014C47.9859 77.1879 47.5668 77.5459 47.3725 78.088C47.1783 78.6301 47.3112 79.162 47.761 79.6734C48.0881 79.9802 48.5073 80.2666 49.0082 80.5223C49.5193 80.778 49.9589 81.0747 50.3371 81.4122C50.7154 81.7497 50.8585 82.1793 50.7665 82.7112C50.6847 83.0589 50.5007 83.3249 50.2145 83.5192C49.9282 83.7136 49.6113 83.8056 49.2535 83.8158C48.8344 83.8261 48.4561 83.6829 48.1188 83.4067C47.7712 83.1305 47.5463 82.6907 47.4339 82.0873H47.1476L47.3521 83.6317Z" fill="#21A038"/>
<path d="M52.2239 83.6317C52.4999 83.8261 52.827 83.9488 53.195 84.0102C53.563 84.0818 53.9004 84.1125 54.1968 84.1022C54.7591 84.1125 55.2396 83.9693 55.6485 83.6829C56.0574 83.4067 56.2823 82.9464 56.3232 82.3225C56.3232 81.719 56.1187 81.2383 55.72 80.8803C55.3111 80.5326 54.8511 80.2359 54.34 79.9905C53.9413 79.7859 53.6039 79.5711 53.3075 79.3461C53.011 79.121 52.8474 78.8449 52.8168 78.5176C52.8066 78.1187 52.9394 77.7914 53.2257 77.5561C53.5017 77.3209 53.8595 77.2083 54.2889 77.2186C54.6671 77.2288 54.984 77.3515 55.26 77.5868C55.536 77.822 55.72 78.2414 55.8223 78.8449L56.1085 78.8347L55.9245 77.4334C55.628 77.1777 55.2498 77.014 54.7898 76.9629C54.3297 76.9117 53.9004 76.922 53.5221 77.014C52.8577 77.1879 52.4385 77.5459 52.2443 78.088C52.0501 78.6301 52.183 79.162 52.6328 79.6734C52.9599 79.9802 53.379 80.2666 53.8799 80.5223C54.3911 80.778 54.8307 81.0747 55.2089 81.4122C55.5871 81.7497 55.7303 82.1793 55.6383 82.7112C55.5565 83.0589 55.3725 83.3249 55.0862 83.5192C54.8 83.7136 54.4831 83.8056 54.1253 83.8158C53.7062 83.8261 53.3279 83.6829 52.9906 83.4067C52.643 83.1305 52.4181 82.6907 52.3056 82.0873H52.0194L52.2239 83.6317Z" fill="#21A038"/>
<path d="M62.4752 77.8834L63.7939 81.269H61.1871L62.4752 77.8834ZM61.1053 84.0204L61.0951 83.959C60.8804 83.9488 60.6964 83.8977 60.5329 83.7852C60.3693 83.6829 60.3284 83.509 60.4102 83.2737L61.0747 81.5656H63.9166L64.6424 83.376C64.6833 83.509 64.6629 83.6215 64.5913 83.7033C64.5095 83.7954 64.4073 83.8568 64.2744 83.8874C64.1415 83.9284 64.029 83.9488 63.9166 83.959V84.0204H66.3292L66.3394 83.959C66.1247 83.9488 65.9305 83.8874 65.7567 83.7749C65.5829 83.6726 65.45 83.5294 65.3682 83.3453L62.8534 77.014H62.5161C62.2503 77.7095 61.9845 78.4051 61.7085 79.1006C61.1565 80.5223 60.6044 81.9338 60.0422 83.3556C59.9706 83.5397 59.8479 83.6829 59.6742 83.7852C59.5004 83.8874 59.3061 83.9488 59.1017 83.959L59.1119 84.0204H61.1053Z" fill="#21A038"/>
<path d="M66.4636 83.959V84.0204H70.3278C70.5322 84.0102 70.7265 84.0306 70.9105 84.0715L71.3194 82.4043L71.258 82.3941C71.1456 82.8135 70.982 83.1305 70.7469 83.3658C70.5118 83.601 70.1744 83.7238 69.7246 83.7238H67.813V77.6379C67.813 77.4436 67.8845 77.3004 68.0174 77.2083C68.1503 77.1265 68.3139 77.0856 68.4877 77.0856V77.014H66.4636V77.0856C66.6476 77.0856 66.8112 77.1265 66.944 77.2083C67.0769 77.3004 67.1383 77.4436 67.1383 77.6482V83.3862C67.1383 83.5908 67.0769 83.734 66.944 83.8158C66.8112 83.9079 66.6476 83.9488 66.4636 83.959Z" fill="#21A038"/>
<path d="M73.649 77.0856H73.6592V77.014H71.6249V77.0856C71.8191 77.0856 71.9827 77.1265 72.1156 77.2083C72.2485 77.3004 72.3098 77.4436 72.3098 77.6482V83.3862C72.3098 83.5908 72.2485 83.734 72.1156 83.8158C71.9827 83.9079 71.8191 83.9488 71.6249 83.959V84.0204H73.6592V83.959H73.649C73.4752 83.9488 73.3116 83.9079 73.1787 83.8158C73.0458 83.734 72.9743 83.5908 72.9743 83.3965V77.6379C72.9743 77.4436 73.0458 77.3004 73.1787 77.2083C73.3116 77.1265 73.4752 77.0856 73.649 77.0856Z" fill="#21A038"/>
<path d="M77.1504 77.8834L78.4692 81.269H75.8624L77.1504 77.8834ZM75.7806 84.0204L75.7703 83.959C75.5557 83.9488 75.3717 83.8977 75.2081 83.7852C75.0445 83.6829 75.0036 83.509 75.0854 83.2737L75.7499 81.5656H78.5918L79.3176 83.376C79.3585 83.509 79.3381 83.6215 79.2665 83.7033C79.1847 83.7954 79.0825 83.8568 78.9496 83.8874C78.8167 83.9284 78.7043 83.9488 78.5918 83.959V84.0204H81.0044L81.0146 83.959C80.7999 83.9488 80.6057 83.8874 80.4319 83.7749C80.2581 83.6726 80.1252 83.5294 80.0435 83.3453L77.5287 77.014H77.1913C76.9255 77.7095 76.6597 78.4051 76.3837 79.1006C75.8317 80.5223 75.2797 81.9338 74.7174 83.3556C74.6458 83.5397 74.5232 83.6829 74.3494 83.7852C74.1756 83.8874 73.9814 83.9488 73.7769 83.959L73.7871 84.0204H75.7806Z" fill="#21A038"/>
<path d="M81.8237 77.6584V83.3862C81.8237 83.5908 81.7624 83.734 81.6295 83.8158C81.4966 83.9079 81.333 83.9488 81.1388 83.959V84.0204H82.7847V83.959C82.6007 83.9488 82.4473 83.9079 82.3144 83.8158C82.1815 83.734 82.11 83.5908 82.11 83.3862V77.8732L86.4853 84.0204H86.7715V77.6482C86.7715 77.4538 86.8431 77.3106 86.976 77.2186C87.1089 77.1368 87.2622 77.0958 87.4462 77.0856V77.0242H85.8106V77.0856C85.9946 77.0958 86.1582 77.1368 86.2911 77.2186C86.424 77.3106 86.4853 77.4538 86.4853 77.6584V82.8544L82.3349 77.0242H81.1388V77.0856C81.333 77.0958 81.4966 77.1368 81.6295 77.2186C81.7624 77.3106 81.8237 77.4538 81.8237 77.6584Z" fill="#21A038"/>
<path d="M88.0234 83.6317C88.2994 83.8261 88.6266 83.9488 88.9946 84.0102C89.3626 84.0818 89.7 84.1125 89.9964 84.1022C90.5587 84.1125 91.0391 83.9693 91.448 83.6829C91.857 83.4067 92.0818 82.9464 92.1227 82.3225C92.1227 81.719 91.9183 81.2383 91.5196 80.8803C91.1107 80.5326 90.6507 80.2359 90.1395 79.9905C89.7409 79.7859 89.4035 79.5711 89.107 79.3461C88.8106 79.121 88.647 78.8449 88.6163 78.5176C88.6061 78.1187 88.739 77.7914 89.0253 77.5561C89.3013 77.3209 89.6591 77.2083 90.0884 77.2186C90.4667 77.2288 90.7836 77.3515 91.0596 77.5868C91.3356 77.822 91.5196 78.2414 91.6218 78.8449L91.9081 78.8347L91.7241 77.4334C91.4276 77.1777 91.0494 77.014 90.5893 76.9629C90.1293 76.9117 89.7 76.922 89.3217 77.014C88.6572 77.1879 88.2381 77.5459 88.0439 78.088C87.8496 78.6301 87.9825 79.162 88.4323 79.6734C88.7595 79.9802 89.1786 80.2666 89.6795 80.5223C90.1906 80.778 90.6302 81.0747 91.0085 81.4122C91.3867 81.7497 91.5298 82.1793 91.4378 82.7112C91.356 83.0589 91.172 83.3249 90.8858 83.5192C90.5996 83.7136 90.2826 83.8056 89.9249 83.8158C89.5057 83.8261 89.1275 83.6829 88.7901 83.4067C88.4426 83.1305 88.2177 82.6907 88.1052 82.0873H87.819L88.0234 83.6317Z" fill="#21A038"/>
<path d="M53.046 33.1499C53.046 33.8403 52.816 34.408 52.3713 34.8376C51.9113 35.2672 51.2979 35.4973 50.5159 35.5127H48.3845V30.6031H49.7032C50.2706 30.5877 50.8226 30.6644 51.3286 30.8179C51.8346 30.9713 52.2487 31.2321 52.5707 31.6003C52.8927 31.9839 53.046 32.4902 53.046 33.1499ZM48.3845 25.8929H49.9639C51.3746 25.9083 52.126 26.5987 52.2026 27.9488C52.1873 28.6853 51.942 29.2376 51.4666 29.6211C50.9759 30.0047 50.3472 30.1888 49.5958 30.1735H48.3845V25.8929ZM46.3604 25.5554C46.6364 25.5554 46.8817 25.6168 47.0811 25.7395C47.2804 25.8776 47.3724 26.0924 47.3724 26.3992V35.0064C47.3724 35.3132 47.2804 35.528 47.0811 35.6507C46.8817 35.7888 46.6364 35.8502 46.3604 35.8655V35.9576H50.1939C50.6232 35.9576 51.0373 35.9269 51.4359 35.8809C51.8193 35.8348 52.218 35.7121 52.6013 35.5127C52.77 35.4359 52.908 35.3439 53.046 35.2365C53.7207 34.6995 54.0581 33.9631 54.0581 33.0272C54.0581 32.4288 53.8894 31.9225 53.5521 31.539C53.1994 31.1554 52.7853 30.8792 52.2793 30.6798C51.7733 30.4957 51.2673 30.4036 50.7459 30.3883C51.666 30.2348 52.31 29.974 52.6627 29.5905C53.0154 29.2222 53.1994 28.6392 53.1994 27.8568C53.1687 27.0436 52.8467 26.4299 52.2487 26.031C51.6506 25.6475 50.9913 25.448 50.2706 25.448H46.3604V25.5554Z" fill="white"/>
<path d="M58.3924 26.7521L60.3705 31.8305H56.4603L58.3924 26.7521ZM56.3376 35.9576L56.3223 35.8655C56.0002 35.8502 55.7242 35.7735 55.4789 35.6047C55.2335 35.4513 55.1722 35.1905 55.2949 34.8376L56.2916 32.2754H60.5545L61.6432 34.991C61.7045 35.1905 61.6739 35.3592 61.5665 35.482C61.4438 35.6201 61.2905 35.7121 61.0912 35.7581C60.8918 35.8195 60.7231 35.8502 60.5545 35.8655V35.9576H64.1733L64.1887 35.8655C63.8666 35.8502 63.5753 35.7581 63.3146 35.5894C63.0539 35.4359 62.8546 35.2211 62.7319 34.945L58.9597 25.448H58.4537C58.055 26.4913 57.6563 27.5346 57.2423 28.5779C56.4143 30.7105 55.5862 32.8277 54.7428 34.9603C54.6355 35.2365 54.4515 35.4513 54.1908 35.6047C53.9301 35.7581 53.6388 35.8502 53.3321 35.8655L53.3474 35.9576H56.3376Z" fill="white"/>
</g>
<defs>
<clipPath id="clip0_949_622">
<rect width="109" height="84" fill="white"/>
</clipPath>
</defs>
</svg>
